<svg width="100" height="100" viewBox="0 0 100 100" fill="none" xmlns="http://www.w3.org/2000/svg">
<g clip-path="url(#clip0_1_2637)">
<rect width="100" height="100" fill="#EAEFD3"/>
<path d="M7.50001 34C6.40504 36.8333 6.32043 39.327 4.51738 38.6302C2.71434 37.9334 2.14033 35.0717 3.2353 32.2383C4.33026 29.405 6.67956 27.673 8.4826 28.3698C10.2856 29.0666 8.59497 31.1667 7.50001 34Z" fill="#E6E5C3"/>
<ellipse cx="91.5" cy="23" rx="5.5" ry="5" fill="#E6E5C3"/>
<path d="M11.4711 67.0403C15.8062 67.0331 14.422 71.4109 14.431 76.8083C14.4401 82.2058 15.839 86.579 11.5039 86.5862C7.16877 86.5935 3.64711 82.2239 3.63805 76.8265C3.62899 71.429 7.13596 67.0476 11.4711 67.0403Z" fill="#E6E5C3"/>
<ellipse cx="89" cy="79" rx="9" ry="8" fill="#E6E5C3"/>
<ellipse cx="70" cy="93" rx="6" ry="5" fill="#E6E5C3"/>
<path d="M25.9799 90.7866C28.0908 92.567 30.8702 92.7438 29.8019 94.0103C28.7337 95.2768 23.6973 99.3269 21.5864 97.5466C19.4756 95.7662 21.0897 88.8294 22.1579 87.5629C23.2262 86.2964 23.8691 89.0062 25.9799 90.7866Z" fill="#E6E5C3"/>
<path d="M93 10C93 13.3137 88.0751 12.5 82 12.5C75.9249 12.5 71 13.3137 71 10C71 6.68629 75.9249 4 82 4C88.0751 4 93 6.68629 93 10Z" fill="#E6E5C3"/>
<path d="M27.6709 6.5C27.6709 8.433 25.2085 10 22.1709 10C19.1334 10 20.1709 8.433 20.1709 6.5C20.1709 4.567 19.1334 3 22.1709 3C25.2085 3 27.6709 4.567 27.6709 6.5Z" fill="#E6E5C3"/>
<path d="M51.815 7.85734C54.5458 7.62327 57.29 8.11461 59.77 9.28165L83.8932 20.6337C88.5058 22.8044 91.7628 27.0967 92.6115 32.1235L96.4553 54.891C97.407 60.5275 95.1917 66.2319 90.6855 69.749L76.7326 80.639L63.3094 93.3165C59.9796 96.4613 55.4335 97.9796 50.8821 97.4668L30.0105 95.115C24.5651 94.5015 19.8438 91.069 17.5806 86.0784L3.99932 56.1299C2.09819 51.9377 2.15064 47.1189 4.14258 42.969L15.8282 18.6241C18.2113 13.6592 23.0411 10.3237 28.5282 9.85335L51.815 7.85734Z" fill="#E6E5C3"/>
<path d="M55.7783 11.7534C58.2983 11.6853 60.7972 12.2305 63.0599 13.342L81.3367 22.3201C86.2088 24.7134 89.4817 29.4725 89.9732 34.8785L91.6201 52.9949C92.0463 57.6833 90.3272 62.3125 86.9443 65.5863L76.2139 75.9706L62.5395 88.9366C59.0833 92.2137 54.3168 93.7276 49.6031 93.0453L30.3865 90.2639C24.7432 89.447 19.9985 85.6091 18.0205 80.2611L9.2077 56.4339C7.92747 52.9725 7.91909 49.1688 9.18407 45.7018L17.6046 22.6233C19.7927 16.6263 25.4215 12.5739 31.803 12.4014L55.7783 11.7534Z" fill="#B0A780"/>
<path d="M53.4299 14.0612C56.4501 13.8416 59.4688 14.5079 62.1159 15.9785L75.7145 23.5333C79.353 25.5547 82.03 28.9494 83.1474 32.9589L87.3509 48.0421C89.0791 54.243 86.8108 60.868 81.6446 64.7085L72.1322 71.7798C70.705 72.8408 69.4701 74.1386 68.4814 75.6169L63.5486 82.9916C59.5795 88.9258 52.0815 91.3979 45.3613 88.9882L32.6178 84.4186C28.6543 82.9974 25.4358 80.0306 23.6973 76.1956L15.2097 57.4729C13.7352 54.2204 13.4243 50.5598 14.329 47.1052L19.5711 27.0887C21.258 20.6478 26.8557 15.9936 33.4964 15.5107L53.4299 14.0612Z" fill="#A79665"/>
<path d="M48.5692 17.8038C50.7122 17.5096 52.8947 17.7533 54.92 18.5128L70.743 24.4464C74.521 25.8632 77.4301 28.9492 78.6216 32.8041L82.9683 46.8667C84.5305 51.921 82.8838 57.4183 78.8001 60.7813L67.9144 69.746L59.5841 78.7733C56.1901 82.4512 50.9903 83.8619 46.2029 82.4034L35.0173 78.9959C30.9299 77.7507 27.712 74.5818 26.4044 70.5139L19.6802 49.5965C18.9018 47.1751 18.8486 44.579 19.5272 42.1278L23.0899 29.258C24.4794 24.2387 28.7227 20.5278 33.8824 19.8196L48.5692 17.8038Z" fill="#8E753B"/>
<path d="M49.0412 22.6537C50.546 22.5803 52.0522 22.7683 53.4928 23.2093L67.511 27.5006C72.9907 29.178 76.7326 34.2369 76.7326 39.9675V51.1339C76.7326 55.0355 74.9853 58.7321 71.9703 61.2087L62.2086 69.2273L52.4559 75.8591C44.7595 81.0926 34.216 76.8087 32.3509 67.6904L31.8167 65.0784C31.6753 64.3874 31.4781 63.7089 31.227 63.0497L25.0268 46.7742C23.9158 43.8579 23.8877 40.6397 24.9477 37.7045L27.0975 31.7512C28.8844 26.8028 33.4703 23.4133 38.7252 23.1569L49.0412 22.6537Z" fill="#5C4616"/>
<path d="M35.8787 32.8337L41.1416 33.5767L44.9696 39.4373L40.6043 46.469L38.5451 44.2307L29.6165 35.1324L35.8787 32.8337Z" fill="#483710"/>
<path d="M59.2623 50.4432L64.5252 51.1862L68.3531 57.0468L63.9878 64.0785L61.9287 61.8402L53 52.7419L59.2623 50.4432Z" fill="#483710"/>
<path d="M57.2623 28.4432L66 29.5L66 42.0785L61 49L59.9287 39.8402L51 30.7419L57.2623 28.4432Z" fill="#483710"/>
<path d="M37 47.5L44.5252 54.1862L48.3531 60.0468L43.9878 67.0785L33 64L31 50.5L37 47.5Z" fill="#483710"/>
<path d="M19.5518 15.9988L19.5344 16.0556L19.5568 16.1106L21.0929 19.8725L19.568 26.9679L14.2148 28.7887L11.1978 20.0047L20.3402 13.4244L19.5518 15.9988Z" fill="#E4DEC1" stroke="#CDC28D" stroke-width="0.333333"/>
<path d="M23.9076 22.4492L19.9234 26.6308L20.5684 19.9578L20.5732 19.9078L20.5496 19.8635L18.5228 16.0581L20.4695 13.1978L24.8187 14.6393L23.9076 22.4492Z" fill="#DCD19E" stroke="#C8B881" stroke-width="0.333333"/>
<path d="M82.0518 17.9988L82.016 18.1156L82.1166 18.1849L86.3428 21.0941L87.289 29.6103L79.106 22.8713L79.0946 22.862L79.0817 22.8547L71.4287 18.5499L82.895 15.2453L82.0518 17.9988Z" fill="#E4DEC1" stroke="#CDC28D" stroke-width="0.333333"/>
<path d="M91.7942 24.4966L87.5735 30.1243L85.1612 20.9576L85.1458 20.899L85.0963 20.864L81.0582 18.0061L82.9387 15.243L88.3771 19.615L91.7942 24.4966Z" fill="#DCD19E" stroke="#C8B881" stroke-width="0.333333"/>
<path d="M18.5784 82.4468L18.5208 82.5226L18.5568 82.6106L20.1093 86.4126L22.7762 95.3333H13.2301L10.2022 86.5174L19.632 81.0599L18.5784 82.4468Z" fill="#E4DEC1" stroke="#CDC28D" stroke-width="0.333333"/>
<path d="M20.4356 80.2655L22.3477 84.5677L22.3603 84.596L22.3822 84.6179L26.7898 89.0255L23.0964 95.129L19.557 86.3793L19.5537 86.3712L19.5496 86.3635L17.5404 82.5911L20.4356 80.2655Z" fill="#DCD19E" stroke="#C8B881" stroke-width="0.333333"/>
<path d="M79.3556 70.8834L79.3261 70.9419L79.3444 71.0048L80.1776 73.8722L78.3147 78.6266L74.9129 75.2415L74.432 69.4707L80.2772 69.0532L79.3556 70.8834Z" fill="#E4DEC1" stroke="#CDC28D" stroke-width="0.333333"/>
<path d="M82.1502 76.0269L78.6497 78.5247L79.8188 73.8847L79.8322 73.8313L79.8113 73.7805L78.6007 70.8418L80.3633 69.0768L82.5789 71.3771L82.1502 76.0269Z" fill="#DCD19E" stroke="#C8B881" stroke-width="0.333333"/>
<path d="M37.2879 91.5759C37.2879 91.2578 37.5457 91 37.8638 91H63.2438C63.5447 91 63.7949 91.2317 63.818 91.5317L64.3042 97.8527C64.3303 98.192 64.058 98.4798 63.7178 98.4726L37.8515 97.9222C37.5383 97.9155 37.2879 97.6597 37.2879 97.3465V91.5759Z" fill="#907651" stroke="#5A4A25" stroke-width="0.575851"/>
<line x1="37.2879" y1="91.8638" x2="41.3189" y2="91.8638" stroke="#5A4A25" stroke-width="0.575851" stroke-linecap="round"/>
<line x1="41.3189" y1="95.8947" x2="45.3499" y2="95.8947" stroke="#5A4A25" stroke-width="0.575851" stroke-linecap="round"/>
<line x1="51.1084" y1="93.0155" x2="55.1393" y2="93.0155" stroke="#5A4A25" stroke-width="0.575851" stroke-linecap="round"/>
<line x1="59.7461" y1="95.3189" x2="63.7771" y2="95.3189" stroke="#5A4A25" stroke-width="0.575851" stroke-linecap="round"/>
<path d="M36.2879 84.5759C36.2879 84.2578 36.5458 84 36.8638 84H62.2439C62.5448 84 62.7949 84.2317 62.818 84.5317L63.3042 90.8527C63.3303 91.192 63.0581 91.4798 62.7178 91.4726L36.8515 90.9222C36.5384 90.9155 36.2879 90.6597 36.2879 90.3465V84.5759Z" fill="#907651" stroke="#5A4A25" stroke-width="0.575851"/>
<line x1="58.7461" y1="85.4396" x2="62.7771" y2="85.4396" stroke="#5A4A25" stroke-width="0.575851" stroke-linecap="round"/>
<line x1="50.6842" y1="87.1672" x2="54.7152" y2="87.1672" stroke="#5A4A25" stroke-width="0.575851" stroke-linecap="round"/>
<line x1="42.0464" y1="86.0155" x2="46.0774" y2="86.0155" stroke="#5A4A25" stroke-width="0.575851" stroke-linecap="round"/>
<line x1="36.2879" y1="89.4706" x2="40.3189" y2="89.4706" stroke="#5A4A25" stroke-width="0.575851" stroke-linecap="round"/>
<path d="M36.0245 79.1629C36.011 78.8406 36.2649 78.5702 36.5874 78.5632L62.1638 78.0132C62.4961 78.006 62.7654 78.2808 62.7516 78.6129L62.5117 84.3704C62.499 84.6739 62.2527 84.9154 61.949 84.9221L36.8524 85.4737C36.5389 85.4806 36.2775 85.2353 36.2644 84.9219L36.0245 79.1629Z" fill="#907651" stroke="#5A4A25" stroke-width="0.575851"/>
<line x1="58.1703" y1="79.4396" x2="62.2013" y2="79.4396" stroke="#5A4A25" stroke-width="0.575851" stroke-linecap="round"/>
<line x1="48.9567" y1="82.3189" x2="52.9877" y2="82.3189" stroke="#5A4A25" stroke-width="0.575851" stroke-linecap="round"/>
<line x1="40.8948" y1="80.5913" x2="44.9257" y2="80.5913" stroke="#5A4A25" stroke-width="0.575851" stroke-linecap="round"/>
<line x1="36.2879" y1="84.0464" x2="40.3189" y2="84.0464" stroke="#5A4A25" stroke-width="0.575851" stroke-linecap="round"/>
<path d="M37.2654 72.1157C37.2781 71.8122 37.5244 71.5707 37.8281 71.564L62.9007 71.0129C63.2236 71.0058 63.4892 71.2657 63.4892 71.5886V77.9102C63.4892 78.2283 63.2313 78.4861 62.9133 78.4861H37.6003C37.2729 78.4861 37.0114 78.2134 37.025 77.8862L37.2654 72.1157Z" fill="#907651" stroke="#5A4A25" stroke-width="0.575851"/>
<line x1="59.1702" y1="71.8638" x2="63.2012" y2="71.8638" stroke="#5A4A25" stroke-width="0.575851" stroke-linecap="round"/>
<line x1="49.3808" y1="77.0464" x2="53.4118" y2="77.0464" stroke="#5A4A25" stroke-width="0.575851" stroke-linecap="round"/>
<line x1="41.3189" y1="73.0155" x2="45.3498" y2="73.0155" stroke="#5A4A25" stroke-width="0.575851" stroke-linecap="round"/>
<line x1="37.2879" y1="75.8947" x2="41.3189" y2="75.8947" stroke="#5A4A25" stroke-width="0.575851" stroke-linecap="round"/>
<path d="M36.0245 65.1629C36.011 64.8406 36.2649 64.5702 36.5874 64.5632L62.1638 64.0132C62.4961 64.006 62.7654 64.2808 62.7516 64.6129L62.5117 70.3704C62.499 70.6739 62.2527 70.9154 61.949 70.9221L36.8524 71.4737C36.5389 71.4806 36.2775 71.2353 36.2644 70.9219L36.0245 65.1629Z" fill="#907651" stroke="#5A4A25" stroke-width="0.575851"/>
<line x1="36.2879" y1="66.0154" x2="40.3189" y2="66.0154" stroke="#5A4A25" stroke-width="0.575851" stroke-linecap="round"/>
<line x1="43.1981" y1="68.8947" x2="47.2291" y2="68.8947" stroke="#5A4A25" stroke-width="0.575851" stroke-linecap="round"/>
<line x1="52.9876" y1="65.4396" x2="57.0186" y2="65.4396" stroke="#5A4A25" stroke-width="0.575851" stroke-linecap="round"/>
<line x1="58.1702" y1="68.8947" x2="62.2012" y2="68.8947" stroke="#5A4A25" stroke-width="0.575851" stroke-linecap="round"/>
<path d="M36.2621 58.8303C36.2766 58.5257 36.526 58.2853 36.8309 58.2819L61.619 58.0065C61.9395 58.0029 62.2012 58.2617 62.2012 58.5823V64.0401C62.2012 64.3606 61.9396 64.6194 61.6191 64.6159L36.5973 64.3409C36.271 64.3373 36.0129 64.0636 36.0284 63.7377L36.2621 58.8303Z" fill="#907651" stroke="#5A4A25" stroke-width="0.575851"/>
<line x1="36.2879" y1="60.0155" x2="40.3189" y2="60.0155" stroke="#5A4A25" stroke-width="0.575851" stroke-linecap="round"/>
<line x1="58.1702" y1="62.8948" x2="62.2012" y2="62.8948" stroke="#5A4A25" stroke-width="0.575851" stroke-linecap="round"/>
<line x1="40.3189" y1="62.8948" x2="44.3498" y2="62.8948" stroke="#5A4A25" stroke-width="0.575851" stroke-linecap="round"/>
<line x1="51.8359" y1="60.5913" x2="55.8668" y2="60.5913" stroke="#5A4A25" stroke-width="0.575851" stroke-linecap="round"/>
<path d="M36.0245 52.1629C36.011 51.8406 36.2649 51.5702 36.5874 51.5632L62.1638 51.0132C62.4961 51.006 62.7654 51.2808 62.7516 51.6129L62.5117 57.3704C62.499 57.6739 62.2527 57.9154 61.949 57.9221L36.8524 58.4737C36.5389 58.4806 36.2775 58.2353 36.2644 57.9219L36.0245 52.1629Z" fill="#907651" stroke="#5A4A25" stroke-width="0.575851"/>
<line x1="36.2879" y1="53.0154" x2="40.3189" y2="53.0154" stroke="#5A4A25" stroke-width="0.575851" stroke-linecap="round"/>
<line x1="43.1981" y1="55.8947" x2="47.2291" y2="55.8947" stroke="#5A4A25" stroke-width="0.575851" stroke-linecap="round"/>
<line x1="52.9876" y1="52.4396" x2="57.0186" y2="52.4396" stroke="#5A4A25" stroke-width="0.575851" stroke-linecap="round"/>
<line x1="58.1702" y1="55.8947" x2="62.2012" y2="55.8947" stroke="#5A4A25" stroke-width="0.575851" stroke-linecap="round"/>
<path d="M36.2654 45.1157C36.2781 44.8122 36.5244 44.5707 36.8281 44.564L61.9007 44.0129C62.2236 44.0058 62.4892 44.2657 62.4892 44.5886V50.9102C62.4892 51.2283 62.2313 51.4861 61.9133 51.4861H36.6003C36.2729 51.4861 36.0114 51.2134 36.025 50.8862L36.2654 45.1157Z" fill="#907651" stroke="#5A4A25" stroke-width="0.575851"/>
<line x1="58.1702" y1="44.8638" x2="62.2012" y2="44.8638" stroke="#5A4A25" stroke-width="0.575851" stroke-linecap="round"/>
<line x1="48.3808" y1="50.0464" x2="52.4118" y2="50.0464" stroke="#5A4A25" stroke-width="0.575851" stroke-linecap="round"/>
<line x1="40.3189" y1="46.0155" x2="44.3498" y2="46.0155" stroke="#5A4A25" stroke-width="0.575851" stroke-linecap="round"/>
<line x1="36.2879" y1="48.8947" x2="40.3189" y2="48.8947" stroke="#5A4A25" stroke-width="0.575851" stroke-linecap="round"/>
<path d="M36.0245 38.1629C36.011 37.8406 36.2649 37.5702 36.5874 37.5632L62.1638 37.0132C62.4961 37.006 62.7654 37.2808 62.7516 37.6129L62.5117 43.3704C62.499 43.6739 62.2527 43.9154 61.949 43.9221L36.8524 44.4737C36.5389 44.4806 36.2775 44.2353 36.2644 43.9219L36.0245 38.1629Z" fill="#907651" stroke="#5A4A25" stroke-width="0.575851"/>
<line x1="58.1703" y1="38.4396" x2="62.2013" y2="38.4396" stroke="#5A4A25" stroke-width="0.575851" stroke-linecap="round"/>
<line x1="48.9567" y1="41.3189" x2="52.9877" y2="41.3189" stroke="#5A4A25" stroke-width="0.575851" stroke-linecap="round"/>
<line x1="40.8948" y1="39.5913" x2="44.9257" y2="39.5913" stroke="#5A4A25" stroke-width="0.575851" stroke-linecap="round"/>
<line x1="36.2879" y1="43.0464" x2="40.3189" y2="43.0464" stroke="#5A4A25" stroke-width="0.575851" stroke-linecap="round"/>
<path d="M36.2879 31.5759C36.2879 31.2578 36.5458 31 36.8638 31H62.2439C62.5448 31 62.7949 31.2317 62.818 31.5317L63.3042 37.8527C63.3303 38.192 63.0581 38.4798 62.7178 38.4726L36.8515 37.9222C36.5384 37.9155 36.2879 37.6597 36.2879 37.3465V31.5759Z" fill="#907651" stroke="#5A4A25" stroke-width="0.575851"/>
<line x1="58.7461" y1="32.4396" x2="62.7771" y2="32.4396" stroke="#5A4A25" stroke-width="0.575851" stroke-linecap="round"/>
<line x1="50.6842" y1="34.1672" x2="54.7152" y2="34.1672" stroke="#5A4A25" stroke-width="0.575851" stroke-linecap="round"/>
<line x1="42.0464" y1="33.0155" x2="46.0774" y2="33.0155" stroke="#5A4A25" stroke-width="0.575851" stroke-linecap="round"/>
<line x1="36.2879" y1="36.4706" x2="40.3189" y2="36.4706" stroke="#5A4A25" stroke-width="0.575851" stroke-linecap="round"/>
<path d="M36.0245 25.1629C36.011 24.8406 36.2649 24.5702 36.5874 24.5632L62.1638 24.0132C62.4961 24.006 62.7654 24.2808 62.7516 24.6129L62.5117 30.3704C62.499 30.6739 62.2527 30.9154 61.949 30.9221L36.8524 31.4737C36.5389 31.4806 36.2775 31.2353 36.2644 30.9219L36.0245 25.1629Z" fill="#907651" stroke="#5A4A25" stroke-width="0.575851"/>
<line x1="36.2879" y1="26.0154" x2="40.3189" y2="26.0154" stroke="#5A4A25" stroke-width="0.575851" stroke-linecap="round"/>
<line x1="43.1981" y1="28.8947" x2="47.2291" y2="28.8947" stroke="#5A4A25" stroke-width="0.575851" stroke-linecap="round"/>
<line x1="52.9876" y1="25.4396" x2="57.0186" y2="25.4396" stroke="#5A4A25" stroke-width="0.575851" stroke-linecap="round"/>
<line x1="58.1702" y1="28.8947" x2="62.2012" y2="28.8947" stroke="#5A4A25" stroke-width="0.575851" stroke-linecap="round"/>
<path d="M36.2654 18.1157C36.2781 17.8122 36.5244 17.5707 36.8281 17.564L61.9007 17.0129C62.2236 17.0058 62.4892 17.2657 62.4892 17.5886V23.9102C62.4892 24.2283 62.2313 24.4861 61.9133 24.4861H36.6003C36.2729 24.4861 36.0114 24.2134 36.025 23.8862L36.2654 18.1157Z" fill="#907651" stroke="#5A4A25" stroke-width="0.575851"/>
<line x1="58.1702" y1="17.8638" x2="62.2012" y2="17.8638" stroke="#5A4A25" stroke-width="0.575851" stroke-linecap="round"/>
<line x1="48.3808" y1="23.0464" x2="52.4118" y2="23.0464" stroke="#5A4A25" stroke-width="0.575851" stroke-linecap="round"/>
<line x1="40.3189" y1="19.0155" x2="44.3498" y2="19.0155" stroke="#5A4A25" stroke-width="0.575851" stroke-linecap="round"/>
<line x1="36.2879" y1="21.8947" x2="40.3189" y2="21.8947" stroke="#5A4A25" stroke-width="0.575851" stroke-linecap="round"/>
<path d="M36.2621 11.8303C36.2766 11.5257 36.526 11.2853 36.8309 11.2819L61.619 11.0065C61.9395 11.0029 62.2012 11.2617 62.2012 11.5823V17.0401C62.2012 17.3606 61.9396 17.6194 61.6191 17.6159L36.5973 17.3409C36.271 17.3373 36.0129 17.0636 36.0284 16.7377L36.2621 11.8303Z" fill="#907651" stroke="#5A4A25" stroke-width="0.575851"/>
<line x1="36.2879" y1="13.0155" x2="40.3189" y2="13.0155" stroke="#5A4A25" stroke-width="0.575851" stroke-linecap="round"/>
<line x1="58.1702" y1="15.8948" x2="62.2012" y2="15.8948" stroke="#5A4A25" stroke-width="0.575851" stroke-linecap="round"/>
<line x1="40.3189" y1="15.8948" x2="44.3498" y2="15.8948" stroke="#5A4A25" stroke-width="0.575851" stroke-linecap="round"/>
<line x1="51.8359" y1="13.5913" x2="55.8668" y2="13.5913" stroke="#5A4A25" stroke-width="0.575851" stroke-linecap="round"/>
<path d="M36.2654 6.11572C36.2781 5.81216 36.5244 5.57065 36.8281 5.56398L61.9007 5.01293C62.2236 5.00584 62.4892 5.26566 62.4892 5.58865V11.9102C62.4892 12.2283 62.2313 12.4861 61.9133 12.4861H36.6003C36.2729 12.4861 36.0114 12.2134 36.025 11.8862L36.2654 6.11572Z" fill="#907651" stroke="#5A4A25" stroke-width="0.575851"/>
<line x1="58.1702" y1="5.86378" x2="62.2012" y2="5.86378" stroke="#5A4A25" stroke-width="0.575851" stroke-linecap="round"/>
<line x1="48.3808" y1="11.0464" x2="52.4118" y2="11.0464" stroke="#5A4A25" stroke-width="0.575851" stroke-linecap="round"/>
<line x1="40.3189" y1="7.0155" x2="44.3498" y2="7.0155" stroke="#5A4A25" stroke-width="0.575851" stroke-linecap="round"/>
<line x1="36.2879" y1="9.89474" x2="40.3189" y2="9.89474" stroke="#5A4A25" stroke-width="0.575851" stroke-linecap="round"/>
<path d="M85.5 51L86.6172 53.5L84.5 58.5L80.5 64L75 62L78 55L85.5 51Z" fill="#A79665"/>
<path d="M24.5 23.5L27.5 26L24.5 34L22.5 40L17 38L20 31L24.5 23.5Z" fill="#A79665"/>
<path d="M29 50.5L33 54V61L25.5 64.5L25 61.5L22.5 49L29 50.5Z" fill="#8E753B"/>
<path d="M73 27.5L78.5 39V50L73 45L67.5 37L69 31L73 27.5Z" fill="#8E753B"/>
<path d="M37.4247 92.1613C37.4247 91.8465 37.6799 91.5914 37.9946 91.5914H63.112C63.4098 91.5914 63.6574 91.8207 63.6803 92.1176L64.1615 98.3732C64.1873 98.709 63.9178 98.9938 63.5811 98.9866L37.9825 98.442C37.6725 98.4354 37.4247 98.1822 37.4247 97.8722V92.1613Z" fill="#D5B777" stroke="#9A7D3C" stroke-width="0.569892"/>
<line x1="59.6505" y1="93.0161" x2="63.6398" y2="93.0161" stroke="#9A7D3C" stroke-width="0.569892" stroke-linecap="round"/>
<line x1="51.6721" y1="94.7258" x2="55.6613" y2="94.7258" stroke="#9A7D3C" stroke-width="0.569892" stroke-linecap="round"/>
<line x1="43.1237" y1="93.586" x2="47.1129" y2="93.586" stroke="#9A7D3C" stroke-width="0.569892" stroke-linecap="round"/>
<line x1="37.4247" y1="97.0054" x2="41.414" y2="97.0054" stroke="#9A7D3C" stroke-width="0.569892" stroke-linecap="round"/>
<path d="M37.4247 28.1613C37.4247 27.8465 37.6799 27.5914 37.9946 27.5914H63.112C63.4098 27.5914 63.6574 27.8207 63.6803 28.1176L64.1615 34.3732C64.1873 34.709 63.9178 34.9938 63.5811 34.9866L37.9825 34.442C37.6725 34.4354 37.4247 34.1822 37.4247 33.8722V28.1613Z" fill="#D5B777" stroke="#9A7D3C" stroke-width="0.569892"/>
<line x1="59.6505" y1="29.0161" x2="63.6398" y2="29.0161" stroke="#9A7D3C" stroke-width="0.569892" stroke-linecap="round"/>
<line x1="51.6721" y1="30.7258" x2="55.6613" y2="30.7258" stroke="#9A7D3C" stroke-width="0.569892" stroke-linecap="round"/>
<line x1="43.1237" y1="29.586" x2="47.1129" y2="29.586" stroke="#9A7D3C" stroke-width="0.569892" stroke-linecap="round"/>
<line x1="37.4247" y1="33.0054" x2="41.414" y2="33.0054" stroke="#9A7D3C" stroke-width="0.569892" stroke-linecap="round"/>
<path d="M37.7339 82.3444C37.7206 82.0255 37.9719 81.7578 38.291 81.7509L63.6028 81.2066C63.9316 81.1995 64.1981 81.4715 64.1844 81.8001L63.947 87.498C63.9345 87.7984 63.6907 88.0374 63.3901 88.044L38.5533 88.5899C38.243 88.5967 37.9843 88.3539 37.9714 88.0438L37.7339 82.3444Z" fill="#D5B777" stroke="#9A7D3C" stroke-width="0.569892"/>
<line x1="37.9946" y1="83.1882" x2="41.9839" y2="83.1882" stroke="#9A7D3C" stroke-width="0.569892" stroke-linecap="round"/>
<line x1="44.8333" y1="86.0376" x2="48.8226" y2="86.0376" stroke="#9A7D3C" stroke-width="0.569892" stroke-linecap="round"/>
<line x1="54.5215" y1="82.6183" x2="58.5107" y2="82.6183" stroke="#9A7D3C" stroke-width="0.569892" stroke-linecap="round"/>
<line x1="59.6505" y1="86.0376" x2="63.6398" y2="86.0376" stroke="#9A7D3C" stroke-width="0.569892" stroke-linecap="round"/>
<path d="M37.7339 17.3444C37.7206 17.0255 37.9719 16.7578 38.291 16.7509L63.6028 16.2066C63.9316 16.1995 64.1981 16.4715 64.1844 16.8001L63.947 22.498C63.9345 22.7984 63.6907 23.0374 63.3901 23.044L38.5533 23.5899C38.243 23.5967 37.9843 23.3539 37.9714 23.0438L37.7339 17.3444Z" fill="#D5B777" stroke="#9A7D3C" stroke-width="0.569892"/>
<line x1="37.9946" y1="18.1882" x2="41.9839" y2="18.1882" stroke="#9A7D3C" stroke-width="0.569892" stroke-linecap="round"/>
<line x1="44.8333" y1="21.0376" x2="48.8226" y2="21.0376" stroke="#9A7D3C" stroke-width="0.569892" stroke-linecap="round"/>
<line x1="54.5215" y1="17.6183" x2="58.5107" y2="17.6183" stroke="#9A7D3C" stroke-width="0.569892" stroke-linecap="round"/>
<line x1="59.6505" y1="21.0376" x2="63.6398" y2="21.0376" stroke="#9A7D3C" stroke-width="0.569892" stroke-linecap="round"/>
<path d="M36.7339 49.1509C36.7206 48.8319 36.9719 48.5643 37.291 48.5574L62.6028 48.0131C62.9316 48.006 63.1981 48.2779 63.1844 48.6065L62.947 54.3044C62.9345 54.6048 62.6907 54.8439 62.3901 54.8505L37.5533 55.3963C37.243 55.4031 36.9843 55.1604 36.9714 54.8503L36.7339 49.1509Z" fill="#D5B777" stroke="#9A7D3C" stroke-width="0.569892"/>
<line x1="36.9946" y1="49.9946" x2="40.9839" y2="49.9946" stroke="#9A7D3C" stroke-width="0.569892" stroke-linecap="round"/>
<line x1="43.8333" y1="52.8441" x2="47.8226" y2="52.8441" stroke="#9A7D3C" stroke-width="0.569892" stroke-linecap="round"/>
<line x1="53.5215" y1="49.4247" x2="57.5107" y2="49.4247" stroke="#9A7D3C" stroke-width="0.569892" stroke-linecap="round"/>
<line x1="58.6505" y1="52.8441" x2="62.6398" y2="52.8441" stroke="#9A7D3C" stroke-width="0.569892" stroke-linecap="round"/>
<path d="M36.0242 70.5165C36.0109 70.1975 36.2622 69.9299 36.5814 69.923L61.8931 69.3787C62.2219 69.3716 62.4884 69.6435 62.4747 69.9721L62.2373 75.67C62.2248 75.9704 61.981 76.2095 61.6804 76.2161L36.8436 76.7619C36.5333 76.7687 36.2746 76.526 36.2617 76.2159L36.0242 70.5165Z" fill="#D5B777" stroke="#9A7D3C" stroke-width="0.569892"/>
<line x1="57.9409" y1="70.7903" x2="61.9301" y2="70.7903" stroke="#9A7D3C" stroke-width="0.569892" stroke-linecap="round"/>
<line x1="48.8226" y1="73.6398" x2="52.8118" y2="73.6398" stroke="#9A7D3C" stroke-width="0.569892" stroke-linecap="round"/>
<line x1="40.8441" y1="71.9301" x2="44.8333" y2="71.9301" stroke="#9A7D3C" stroke-width="0.569892" stroke-linecap="round"/>
<line x1="36.2849" y1="75.3495" x2="40.2742" y2="75.3495" stroke="#9A7D3C" stroke-width="0.569892" stroke-linecap="round"/>
<path d="M36.0242 5.51648C36.0109 5.19752 36.2622 4.92985 36.5814 4.92299L61.8931 4.37865C62.2219 4.37158 62.4884 4.64353 62.4747 4.97214L62.2373 10.67C62.2248 10.9704 61.981 11.2095 61.6804 11.2161L36.8436 11.7619C36.5333 11.7687 36.2746 11.526 36.2617 11.2159L36.0242 5.51648Z" fill="#D5B777" stroke="#9A7D3C" stroke-width="0.569892"/>
<line x1="57.9409" y1="5.79033" x2="61.9301" y2="5.79033" stroke="#9A7D3C" stroke-width="0.569892" stroke-linecap="round"/>
<line x1="48.8226" y1="8.63978" x2="52.8118" y2="8.63978" stroke="#9A7D3C" stroke-width="0.569892" stroke-linecap="round"/>
<line x1="40.8441" y1="6.93011" x2="44.8333" y2="6.93011" stroke="#9A7D3C" stroke-width="0.569892" stroke-linecap="round"/>
<line x1="36.2849" y1="10.3495" x2="40.2742" y2="10.3495" stroke="#9A7D3C" stroke-width="0.569892" stroke-linecap="round"/>
<path d="M36.9946 60.3978C36.9946 60.0831 37.2498 59.828 37.5645 59.828H62.6819C62.9797 59.828 63.2273 60.0572 63.2502 60.3541L63.7313 66.6097C63.7572 66.9455 63.4877 67.2304 63.151 67.2232L37.5524 66.6785C37.2424 66.6719 36.9946 66.4188 36.9946 66.1088V60.3978Z" fill="#D5B777" stroke="#9A7D3C" stroke-width="0.569892"/>
<line x1="36.9946" y1="60.6828" x2="40.9839" y2="60.6828" stroke="#9A7D3C" stroke-width="0.569892" stroke-linecap="round"/>
<line x1="40.9839" y1="64.672" x2="44.9731" y2="64.672" stroke="#9A7D3C" stroke-width="0.569892" stroke-linecap="round"/>
<line x1="50.672" y1="61.8226" x2="54.6613" y2="61.8226" stroke="#9A7D3C" stroke-width="0.569892" stroke-linecap="round"/>
<line x1="59.2204" y1="64.1022" x2="63.2097" y2="64.1022" stroke="#9A7D3C" stroke-width="0.569892" stroke-linecap="round"/>
<path d="M37.2594 38.8217C37.2737 38.5203 37.5206 38.2823 37.8223 38.279L62.3539 38.0064C62.6711 38.0029 62.9301 38.259 62.9301 38.5763V43.9776C62.9301 44.2948 62.6711 44.5509 62.354 44.5474L37.5911 44.2753C37.2682 44.2718 37.0128 44.0009 37.0281 43.6783L37.2594 38.8217Z" fill="#D5B777" stroke="#9A7D3C" stroke-width="0.569892"/>
<line x1="37.2849" y1="39.9946" x2="41.2742" y2="39.9946" stroke="#9A7D3C" stroke-width="0.569892" stroke-linecap="round"/>
<line x1="58.9409" y1="42.8441" x2="62.9301" y2="42.8441" stroke="#9A7D3C" stroke-width="0.569892" stroke-linecap="round"/>
<line x1="41.2742" y1="42.8441" x2="45.2634" y2="42.8441" stroke="#9A7D3C" stroke-width="0.569892" stroke-linecap="round"/>
<line x1="52.672" y1="40.5645" x2="56.6613" y2="40.5645" stroke="#9A7D3C" stroke-width="0.569892" stroke-linecap="round"/>
<g filter="url(#filter0_d_1_2637)">
<rect x="40" width="2" height="100" fill="#D1D6C2"/>
<rect x="39.5" y="-0.5" width="3" height="101" stroke="#8E9093"/>
</g>
<g filter="url(#filter1_d_1_2637)">
<rect x="58" width="2" height="100" fill="#D1D6C2"/>
<rect x="57.5" y="-0.5" width="3" height="101" stroke="#8E9093"/>
</g>
</g>
<rect x="0.25" y="0.25" width="99.5" height="99.5" stroke="#D4B777" stroke-opacity="0.25" stroke-width="0.5"/>
<defs>
<filter id="filter0_d_1_2637" x="38" y="-2" width="6" height="104" filterUnits="userSpaceOnUse" color-interpolation-filters="sRGB">
<feFlood flood-opacity="0" result="BackgroundImageFix"/>
<feColorMatrix in="SourceAlpha" type="matrix" values="0 0 0 0 0 0 0 0 0 0 0 0 0 0 0 0 0 0 127 0" result="hardAlpha"/>
<feMorphology radius="1" operator="dilate" in="SourceAlpha" result="effect1_dropShadow_1_2637"/>
<feOffset/>
<feComposite in2="hardAlpha" operator="out"/>
<feColorMatrix type="matrix" values="0 0 0 0 0.281908 0 0 0 0 0.387944 0 0 0 0 0.546999 0 0 0 0.02 0"/>
<feBlend mode="normal" in2="BackgroundImageFix" result="effect1_dropShadow_1_2637"/>
<feBlend mode="normal" in="SourceGraphic" in2="effect1_dropShadow_1_2637" result="shape"/>
</filter>
<filter id="filter1_d_1_2637" x="56" y="-2" width="6" height="104" filterUnits="userSpaceOnUse" color-interpolation-filters="sRGB">
<feFlood flood-opacity="0" result="BackgroundImageFix"/>
<feColorMatrix in="SourceAlpha" type="matrix" values="0 0 0 0 0 0 0 0 0 0 0 0 0 0 0 0 0 0 127 0" result="hardAlpha"/>
<feMorphology radius="1" operator="dilate" in="SourceAlpha" result="effect1_dropShadow_1_2637"/>
<feOffset/>
<feComposite in2="hardAlpha" operator="out"/>
<feColorMatrix type="matrix" values="0 0 0 0 0.281908 0 0 0 0 0.387944 0 0 0 0 0.546999 0 0 0 0.02 0"/>
<feBlend mode="normal" in2="BackgroundImageFix" result="effect1_dropShadow_1_2637"/>
<feBlend mode="normal" in="SourceGraphic" in2="effect1_dropShadow_1_2637" result="shape"/>
</filter>
<clipPath id="clip0_1_2637">
<rect width="100" height="100" fill="white"/>
</clipPath>
</defs>
</svg>
