<svg width="100" height="100" viewBox="0 0 100 100" fill="none" xmlns="http://www.w3.org/2000/svg" version="1.1" xmlns:xlink="http://www.w3.org/1999/xlink" transform="matrix(-1.8369701987210297e-16,-1,1,-1.8369701987210297e-16,0,0)">
<g clip-path="url(#clip0_1_2632)">
<rect width="100" height="100" fill="#EAEFD3"></rect>
<path opacity="0.3" d="M289 50H91C68.3563 50 50 68.3563 50 91V194" stroke="#DCCE9E" stroke-width="22"></path>
<ellipse cx="10.5" cy="22.5" rx="4.5" ry="3.5" fill="#E6E5C3"></ellipse>
<circle cx="93.5" cy="22.5" r="3.5" fill="#E6E5C3"></circle>
<ellipse cx="72" cy="33" rx="8" ry="3" fill="#E6E5C3"></ellipse>
<ellipse cx="32.0164" cy="87.1168" rx="6" ry="4" transform="rotate(-47.0333 32.0164 87.1168)" fill="#E6E5C3"></ellipse>
<ellipse cx="25.0164" cy="44.1168" rx="6" ry="4" transform="rotate(-47.0333 25.0164 44.1168)" fill="#E6E5C3"></ellipse>
<ellipse cx="92.927" cy="95.6168" rx="3.37792" ry="1.67994" transform="rotate(-47.0333 92.927 95.6168)" fill="#E6E5C3"></ellipse>
<path d="M35.2879 91.5759C35.2879 91.2578 35.5457 91 35.8638 91H61.2438C61.5447 91 61.7949 91.2317 61.818 91.5317L62.3042 97.8527C62.3303 98.192 62.058 98.4798 61.7178 98.4726L35.8515 97.9222C35.5383 97.9156 35.2879 97.6598 35.2879 97.3465V91.5759Z" fill="#D5B777" stroke="#9A7D3C" stroke-width="0.575851"></path>
<line x1="35.2879" y1="91.8638" x2="39.3189" y2="91.8638" stroke="#9A7D3C" stroke-width="0.575851" stroke-linecap="round"></line>
<line x1="39.3189" y1="95.8947" x2="43.3498" y2="95.8947" stroke="#9A7D3C" stroke-width="0.575851" stroke-linecap="round"></line>
<line x1="49.1084" y1="93.0155" x2="53.1393" y2="93.0155" stroke="#9A7D3C" stroke-width="0.575851" stroke-linecap="round"></line>
<line x1="57.7461" y1="95.3189" x2="61.7771" y2="95.3189" stroke="#9A7D3C" stroke-width="0.575851" stroke-linecap="round"></line>
<path d="M36.9132 79.3006C36.9706 78.9832 37.2775 78.7748 37.5937 78.8386L62.6704 83.8996C62.9962 83.9654 63.1988 84.2925 63.1127 84.6134L61.6185 90.1788C61.5397 90.4722 61.2465 90.654 60.9487 90.594L36.3399 85.6395C36.0324 85.5776 35.831 85.2811 35.8869 84.9725L36.9132 79.3006Z" fill="#D5B777" stroke="#9A7D3C" stroke-width="0.575851"></path>
<line x1="58.4615" y1="84.4175" x2="62.3948" y2="85.2997" stroke="#9A7D3C" stroke-width="0.575851" stroke-linecap="round"></line>
<line x1="48.8411" y1="85.2104" x2="52.7744" y2="86.0926" stroke="#9A7D3C" stroke-width="0.575851" stroke-linecap="round"></line>
<line x1="41.3528" y1="81.7603" x2="45.286" y2="82.6425" stroke="#9A7D3C" stroke-width="0.575851" stroke-linecap="round"></line>
<line x1="36.1014" y1="84.1234" x2="40.0347" y2="85.0056" stroke="#9A7D3C" stroke-width="0.575851" stroke-linecap="round"></line>
<path d="M40.4059 67.0864C40.515 66.7828 40.8521 66.628 41.1534 66.7431L65.0508 75.8736C65.3613 75.9922 65.5072 76.3483 65.3692 76.6506L62.9769 81.8931C62.8508 82.1695 62.5317 82.3003 62.2478 82.192L38.7942 73.2438C38.5012 73.132 38.3515 72.8063 38.4576 72.5111L40.4059 67.0864Z" fill="#D5B777" stroke="#9A7D3C" stroke-width="0.575851"></path>
<line x1="40.3286" y1="67.9753" x2="44.0623" y2="69.4947" stroke="#9A7D3C" stroke-width="0.575851" stroke-linecap="round"></line>
<line x1="45.644" y1="73.2468" x2="49.3776" y2="74.7661" stroke="#9A7D3C" stroke-width="0.575851" stroke-linecap="round"></line>
<line x1="56.0137" y1="73.7362" x2="59.7474" y2="75.2556" stroke="#9A7D3C" stroke-width="0.575851" stroke-linecap="round"></line>
<line x1="59.5119" y1="78.8899" x2="63.2456" y2="80.4092" stroke="#9A7D3C" stroke-width="0.575851" stroke-linecap="round"></line>
<path d="M52.5486 49.2839C52.7866 49.0729 53.1505 49.0948 53.3615 49.3328L70.1967 68.3255C70.3963 68.5507 70.3889 68.8916 70.1797 69.1079L65.772 73.6646C65.5354 73.9092 65.1394 73.8964 64.9191 73.637L48.1732 53.9153C47.9705 53.6766 47.9958 53.3195 48.2302 53.1117L52.5486 49.2839Z" fill="#D5B777" stroke="#9A7D3C" stroke-width="0.575851"></path>
<line x1="66.7992" y1="66.663" x2="69.4731" y2="69.6795" stroke="#9A7D3C" stroke-width="0.575851" stroke-linecap="round"></line>
<line x1="60.1588" y1="61.776" x2="62.8326" y2="64.7925" stroke="#9A7D3C" stroke-width="0.575851" stroke-linecap="round"></line>
<line x1="55.291" y1="54.5481" x2="57.9648" y2="57.5646" stroke="#9A7D3C" stroke-width="0.575851" stroke-linecap="round"></line>
<line x1="48.8857" y1="52.5307" x2="51.5595" y2="55.5472" stroke="#9A7D3C" stroke-width="0.575851" stroke-linecap="round"></line>
<path d="M67.8389 40.0674C68.1221 39.9574 68.4421 40.0862 68.5699 40.3619L79.1223 63.1123C79.2582 63.4053 79.1266 63.7528 78.8306 63.8822L73.0389 66.4155C72.7475 66.5429 72.408 66.41 72.2805 66.1187L62.1367 42.9271C62.0054 42.6271 62.1504 42.2782 62.4556 42.1596L67.8389 40.0674Z" fill="#D5B777" stroke="#9A7D3C" stroke-width="0.575851"></path>
<line x1="76.8478" y1="60.0355" x2="78.4632" y2="63.7286" stroke="#9A7D3C" stroke-width="0.575851" stroke-linecap="round"></line>
<line x1="68.1765" y1="53.1434" x2="69.7919" y2="56.8365" stroke="#9A7D3C" stroke-width="0.575851" stroke-linecap="round"></line>
<line x1="68.6389" y1="44.1417" x2="70.2543" y2="47.8349" stroke="#9A7D3C" stroke-width="0.575851" stroke-linecap="round"></line>
<line x1="64.3856" y1="41.6024" x2="66.001" y2="45.2955" stroke="#9A7D3C" stroke-width="0.575851" stroke-linecap="round"></line>
<path d="M82.7953 35.4111C83.1051 35.3389 83.4147 35.5315 83.4868 35.8412L89.2448 60.5595C89.3131 60.8526 89.1442 61.1488 88.8572 61.2393L82.8114 63.1469C82.4868 63.2493 82.1448 63.0494 82.0746 62.7164L76.7423 37.3998C76.6778 37.0932 76.8701 36.7913 77.1752 36.7202L82.7953 35.4111Z" fill="#D5B777" stroke="#9A7D3C" stroke-width="0.575851"></path>
<line x1="82.5149" y1="35.4764" x2="83.4294" y2="39.4022" stroke="#9A7D3C" stroke-width="0.575851" stroke-linecap="round"></line>
<line x1="79.5036" y1="40.3167" x2="80.4181" y2="44.2426" stroke="#9A7D3C" stroke-width="0.575851" stroke-linecap="round"></line>
<line x1="84.5287" y1="49.1977" x2="85.4432" y2="53.1236" stroke="#9A7D3C" stroke-width="0.575851" stroke-linecap="round"></line>
<line x1="84.245" y1="58.1328" x2="85.1595" y2="62.0587" stroke="#9A7D3C" stroke-width="0.575851" stroke-linecap="round"></line>
<path d="M92.8303 62.2271C92.5257 62.2126 92.2853 61.9632 92.2819 61.6583L92.0065 36.8702C92.0029 36.5497 92.2617 36.2879 92.5823 36.2879L98.0401 36.2879C98.3606 36.2879 98.6194 36.5496 98.6159 36.8701L98.3409 61.8919C98.3373 62.2182 98.0636 62.4763 97.7377 62.4608L92.8303 62.2271Z" fill="#D5B777" stroke="#9A7D3C" stroke-width="0.575851"></path>
<line x1="94.0155" y1="62.2012" x2="94.0155" y2="58.1703" stroke="#9A7D3C" stroke-width="0.575851" stroke-linecap="round"></line>
<line x1="96.8948" y1="40.3189" x2="96.8948" y2="36.2879" stroke="#9A7D3C" stroke-width="0.575851" stroke-linecap="round"></line>
<line x1="96.8948" y1="58.1703" x2="96.8948" y2="54.1393" stroke="#9A7D3C" stroke-width="0.575851" stroke-linecap="round"></line>
<line x1="94.5913" y1="46.6533" x2="94.5913" y2="42.6223" stroke="#9A7D3C" stroke-width="0.575851" stroke-linecap="round"></line>
<g filter="url(#filter0_d_1_2632)">
<path fill-rule="evenodd" clip-rule="evenodd" d="M87 42C62.1472 42 42 62.1472 42 87V117.71H40V87C40 61.0426 61.0426 40 87 40H123V42H87Z" fill="#D1D6C2"></path>
<path d="M42 118.21H42.5V117.71V87C42.5 62.4233 62.4233 42.5 87 42.5H123H123.5V42V40V39.5H123H87C60.7665 39.5 39.5 60.7665 39.5 87V117.71V118.21H40H42Z" stroke="#8E9093"></path>
</g>
<g filter="url(#filter1_d_1_2632)">
<path fill-rule="evenodd" clip-rule="evenodd" d="M89 60C72.9837 60 60 72.9837 60 89V135.71H58V89C58 71.8792 71.8792 58 89 58H141V60H89Z" fill="#D1D6C2"></path>
<path d="M60 136.21H60.5V135.71V89C60.5 73.2599 73.2599 60.5 89 60.5H141H141.5V60V58V57.5H141H89C71.603 57.5 57.5 71.603 57.5 89V135.71V136.21H58H60Z" stroke="#8E9093"></path>
</g>
<path d="M83.7659 76.9122L83.7276 77.0143L83.7764 77.1118L86.2342 82.0275L83.7948 91.2975L75.1451 93.7002L70.3152 82.2158L85.018 73.5733L83.7659 76.9122Z" fill="#E4DEC1" stroke="#CDC28D" stroke-width="0.5"></path>
<path d="M90.7658 85.3715L84.3235 90.8934L85.3594 82.1405L85.37 82.0505L85.3205 81.9745L82.0881 77.0181L85.2005 73.2832L92.2212 75.1835L90.7658 85.3715Z" fill="#DCD19E" stroke="#C8B881" stroke-width="0.5"></path>
<path d="M9.19522 68.6562L9.22238 68.6222L9.23649 68.5811L15.0725 51.5594L23.7434 64.5658L21.2732 93.2197L9.67645 91.7701L3.28679 76.0417L9.19522 68.6562Z" fill="#E4DEC1" stroke="#CDC28D" stroke-width="0.5"></path>
<path d="M23.8629 55.586L23.8841 55.5963L23.9069 55.6024L31.0824 57.5447L29.6167 67.8043L21.8883 91.5029L23.7494 64.5172L23.755 64.4358L23.7116 64.3668L15.6779 51.6075L23.8629 55.586Z" fill="#DCD19E" stroke="#C8B881" stroke-width="0.5"></path>
<path d="M52.7174 19.0773L42.0831 55.8139L38.7475 32.4646L38.7381 32.3989L38.6973 32.3465L28.1973 18.8465L28.1839 18.8292L28.1676 18.8145L13.0947 5.20029L35.91 3.25857L52.7174 19.0773Z" fill="#E4DEC1" stroke="#CDC28D" stroke-width="0.5"></path>
<path d="M47.2425 20.1552L35.949 3.2226L51.5966 2.25089L98.6001 7.64998L66.8362 15.5567L66.7363 15.5816L66.6828 15.6696L42.3013 55.8326L47.2821 20.3286L47.2953 20.2344L47.2425 20.1552Z" fill="#DCD19E" stroke="#C8B881" stroke-width="0.5"></path>
</g>
<rect x="0.25" y="0.25" width="99.5" height="99.5" stroke="#D4B777" stroke-opacity="0.25" stroke-width="0.5"></rect>
<defs>
<filter id="filter0_d_1_2632" x="38" y="38" width="87" height="81.7097" filterUnits="userSpaceOnUse" color-interpolation-filters="sRGB">
<feFlood flood-opacity="0" result="BackgroundImageFix"></feFlood>
<feColorMatrix in="SourceAlpha" type="matrix" values="0 0 0 0 0 0 0 0 0 0 0 0 0 0 0 0 0 0 127 0" result="hardAlpha"></feColorMatrix>
<feOffset></feOffset>
<feGaussianBlur stdDeviation="0.5"></feGaussianBlur>
<feComposite in2="hardAlpha" operator="out"></feComposite>
<feColorMatrix type="matrix" values="0 0 0 0 0.282353 0 0 0 0 0.388235 0 0 0 0 0.545098 0 0 0 0.25 0"></feColorMatrix>
<feBlend mode="normal" in2="BackgroundImageFix" result="effect1_dropShadow_1_2632"></feBlend>
<feBlend mode="normal" in="SourceGraphic" in2="effect1_dropShadow_1_2632" result="shape"></feBlend>
</filter>
<filter id="filter1_d_1_2632" x="56" y="56" width="87" height="81.7097" filterUnits="userSpaceOnUse" color-interpolation-filters="sRGB">
<feFlood flood-opacity="0" result="BackgroundImageFix"></feFlood>
<feColorMatrix in="SourceAlpha" type="matrix" values="0 0 0 0 0 0 0 0 0 0 0 0 0 0 0 0 0 0 127 0" result="hardAlpha"></feColorMatrix>
<feOffset></feOffset>
<feGaussianBlur stdDeviation="0.5"></feGaussianBlur>
<feComposite in2="hardAlpha" operator="out"></feComposite>
<feColorMatrix type="matrix" values="0 0 0 0 0.282353 0 0 0 0 0.388235 0 0 0 0 0.545098 0 0 0 0.25 0"></feColorMatrix>
<feBlend mode="normal" in2="BackgroundImageFix" result="effect1_dropShadow_1_2632"></feBlend>
<feBlend mode="normal" in="SourceGraphic" in2="effect1_dropShadow_1_2632" result="shape"></feBlend>
</filter>
<clipPath id="clip0_1_2632">
<rect width="100" height="100" fill="white"></rect>
</clipPath>
</defs>
</svg>