<svg width="1280" height="153" viewBox="0 0 1280 153" fill="none" xmlns="http://www.w3.org/2000/svg">
<g filter="url(#filter0_d_1_4561)">
<rect x="-110" y="36" width="10.9999" height="1447" transform="rotate(-90 -110 36)" fill="#D1D6C2"/>
<rect x="-112.641" y="38.6409" width="16.2818" height="1452.28" transform="rotate(-90 -112.641 38.6409)" stroke="#8E9093" stroke-width="5.28187"/>
</g>
<g filter="url(#filter1_d_1_4561)">
<rect x="-110" y="125" width="10.9999" height="1447" transform="rotate(-90 -110 125)" fill="#D1D6C2"/>
<rect x="-112.641" y="127.641" width="16.2818" height="1452.28" transform="rotate(-90 -112.641 127.641)" stroke="#8E9093" stroke-width="5.28187"/>
</g>
<path d="M436.01 143.475C434.348 143.475 433 142.127 433 140.465L433 7.79771C433 6.22482 434.211 4.91711 435.779 4.79648L468.82 2.25485C470.594 2.11842 472.099 3.54162 472.061 5.32011L469.184 140.529C469.149 142.166 467.812 143.475 466.174 143.475L436.01 143.475Z" fill="#D5B777" stroke="#9A7D3C" stroke-width="3.0101"/>
<line x1="460.736" y1="26.0806" x2="460.736" y2="5.00995" stroke="#9A7D3C" stroke-width="3.0101" stroke-linecap="round"/>
<line x1="444.495" y1="68.5755" x2="444.495" y2="47.5048" stroke="#9A7D3C" stroke-width="3.0101" stroke-linecap="round"/>
<line x1="455.495" y1="109.576" x2="455.495" y2="88.5048" stroke="#9A7D3C" stroke-width="3.0101" stroke-linecap="round"/>
<line x1="451.807" y1="143.474" x2="451.807" y2="122.404" stroke="#9A7D3C" stroke-width="3.0101" stroke-linecap="round"/>
<path d="M130.01 143.475C128.348 143.475 127 142.127 127 140.465L127 7.79747C127 6.22458 128.211 4.91687 129.779 4.79623L162.82 2.25461C164.594 2.11818 166.099 3.54138 166.061 5.31987L163.184 140.529C163.149 142.166 161.812 143.475 160.174 143.475L130.01 143.475Z" fill="#D5B777" stroke="#9A7D3C" stroke-width="3.0101"/>
<line x1="134.525" y1="26.0806" x2="134.525" y2="5.00995" stroke="#9A7D3C" stroke-width="3.0101" stroke-linecap="round"/>
<line x1="143.555" y1="68.222" x2="143.555" y2="47.1513" stroke="#9A7D3C" stroke-width="3.0101" stroke-linecap="round"/>
<line x1="137.535" y1="113.373" x2="137.535" y2="92.3027" stroke="#9A7D3C" stroke-width="3.0101" stroke-linecap="round"/>
<line x1="155.596" y1="143.474" x2="155.596" y2="122.404" stroke="#9A7D3C" stroke-width="3.0101" stroke-linecap="round"/>
<path d="M377.079 141.842C375.394 141.912 373.98 140.585 373.944 138.899L371.069 5.20578C371.032 3.46904 372.468 2.06126 374.204 2.13358L404.299 3.38756C405.886 3.45367 407.148 4.74116 407.183 6.3289L410.066 137.514C410.102 139.153 408.82 140.519 407.182 140.588L377.079 141.842Z" fill="#D5B777" stroke="#9A7D3C" stroke-width="3.0101"/>
<line x1="381.535" y1="140.465" x2="381.535" y2="119.394" stroke="#9A7D3C" stroke-width="3.0101" stroke-linecap="round"/>
<line x1="396.586" y1="104.344" x2="396.586" y2="83.2729" stroke="#9A7D3C" stroke-width="3.0101" stroke-linecap="round"/>
<line x1="378.525" y1="53.1717" x2="378.525" y2="32.101" stroke="#9A7D3C" stroke-width="3.0101" stroke-linecap="round"/>
<line x1="396.586" y1="26.0809" x2="396.586" y2="5.01019" stroke="#9A7D3C" stroke-width="3.0101" stroke-linecap="round"/>
<path d="M71.0788 141.842C69.3941 141.912 67.9803 140.585 67.9441 138.899L65.0689 5.20578C65.0316 3.46904 66.468 2.06126 68.2036 2.13358L98.2992 3.38756C99.886 3.45367 101.148 4.74116 101.183 6.3289L104.066 137.514C104.102 139.153 102.82 140.519 101.182 140.588L71.0788 141.842Z" fill="#D5B777" stroke="#9A7D3C" stroke-width="3.0101"/>
<line x1="75.5352" y1="140.465" x2="75.5352" y2="119.394" stroke="#9A7D3C" stroke-width="3.0101" stroke-linecap="round"/>
<line x1="90.5859" y1="104.344" x2="90.5859" y2="83.2729" stroke="#9A7D3C" stroke-width="3.0101" stroke-linecap="round"/>
<line x1="72.5252" y1="53.1717" x2="72.5252" y2="32.101" stroke="#9A7D3C" stroke-width="3.0101" stroke-linecap="round"/>
<line x1="90.5858" y1="26.0809" x2="90.5858" y2="5.01019" stroke="#9A7D3C" stroke-width="3.0101" stroke-linecap="round"/>
<path d="M315.079 150.872C313.394 150.942 311.98 149.615 311.944 147.929L309.069 14.2361C309.032 12.4993 310.468 11.0915 312.204 11.1638L342.299 12.4178C343.886 12.4839 345.148 13.7714 345.183 15.3592L348.066 146.544C348.102 148.183 346.82 149.55 345.182 149.618L315.079 150.872Z" fill="#D5B777" stroke="#9A7D3C" stroke-width="3.0101"/>
<line x1="316.525" y1="35.1112" x2="316.525" y2="14.0405" stroke="#9A7D3C" stroke-width="3.0101" stroke-linecap="round"/>
<line x1="331.576" y1="83.2728" x2="331.576" y2="62.2021" stroke="#9A7D3C" stroke-width="3.0101" stroke-linecap="round"/>
<line x1="322.545" y1="125.414" x2="322.545" y2="104.343" stroke="#9A7D3C" stroke-width="3.0101" stroke-linecap="round"/>
<line x1="340.606" y1="149.495" x2="340.606" y2="128.424" stroke="#9A7D3C" stroke-width="3.0101" stroke-linecap="round"/>
<path d="M9.13737 150.872C7.45267 150.942 6.03891 149.615 6.00266 147.929L3.12753 14.2361C3.09018 12.4993 4.52659 11.0915 6.26224 11.1638L36.3578 12.4178C37.9445 12.4839 39.207 13.7714 39.2418 15.3592L42.125 146.544C42.1611 148.183 40.8789 149.55 39.241 149.618L9.13737 150.872Z" fill="#D5B777" stroke="#9A7D3C" stroke-width="3.0101"/>
<line x1="10.5837" y1="35.1112" x2="10.5837" y2="14.0405" stroke="#9A7D3C" stroke-width="3.0101" stroke-linecap="round"/>
<line x1="25.6344" y1="83.2728" x2="25.6344" y2="62.2021" stroke="#9A7D3C" stroke-width="3.0101" stroke-linecap="round"/>
<line x1="16.6039" y1="125.414" x2="16.6039" y2="104.343" stroke="#9A7D3C" stroke-width="3.0101" stroke-linecap="round"/>
<line x1="34.6646" y1="149.495" x2="34.6646" y2="128.424" stroke="#9A7D3C" stroke-width="3.0101" stroke-linecap="round"/>
<path d="M250.01 145.747C248.348 145.747 247 144.399 247 142.736L247 10.0694C247 8.49655 248.211 7.18884 249.779 7.06821L282.82 4.52658C284.594 4.39015 286.099 5.81335 286.061 7.59184L283.184 142.801C283.149 144.438 281.812 145.747 280.174 145.747L250.01 145.747Z" fill="#D5B777" stroke="#9A7D3C" stroke-width="3.0101"/>
<line x1="251.515" y1="145.746" x2="251.515" y2="124.676" stroke="#9A7D3C" stroke-width="3.0101" stroke-linecap="round"/>
<line x1="272.586" y1="124.676" x2="272.586" y2="103.605" stroke="#9A7D3C" stroke-width="3.0101" stroke-linecap="round"/>
<line x1="257.535" y1="73.504" x2="257.535" y2="52.4333" stroke="#9A7D3C" stroke-width="3.0101" stroke-linecap="round"/>
<line x1="269.576" y1="28.3526" x2="269.576" y2="7.28192" stroke="#9A7D3C" stroke-width="3.0101" stroke-linecap="round"/>
<path d="M193.34 142.871C191.748 142.796 190.491 141.492 190.474 139.898L189.034 10.3255C189.015 8.65005 190.368 7.28192 192.044 7.28192L220.573 7.28192C222.248 7.28192 223.601 8.64984 223.583 10.3251L222.145 141.119C222.127 142.825 220.696 144.174 218.992 144.093L193.34 142.871Z" fill="#D5B777" stroke="#9A7D3C" stroke-width="3.0101"/>
<line x1="199.535" y1="142.736" x2="199.535" y2="121.666" stroke="#9A7D3C" stroke-width="3.0101" stroke-linecap="round"/>
<line x1="214.586" y1="28.3526" x2="214.586" y2="7.28192" stroke="#9A7D3C" stroke-width="3.0101" stroke-linecap="round"/>
<line x1="214.586" y1="121.666" x2="214.586" y2="100.595" stroke="#9A7D3C" stroke-width="3.0101" stroke-linecap="round"/>
<line x1="202.545" y1="61.4637" x2="202.545" y2="40.393" stroke="#9A7D3C" stroke-width="3.0101" stroke-linecap="round"/>
<path d="M928.01 143.475C926.348 143.475 925 142.127 925 140.465L925 7.79747C925 6.22458 926.211 4.91687 927.779 4.79623L960.82 2.25461C962.594 2.11818 964.098 3.54138 964.061 5.31987L961.184 140.529C961.149 142.166 959.812 143.475 958.174 143.475L928.01 143.475Z" fill="#D5B777" stroke="#9A7D3C" stroke-width="3.0101"/>
<line x1="932.525" y1="26.0806" x2="932.525" y2="5.00995" stroke="#9A7D3C" stroke-width="3.0101" stroke-linecap="round"/>
<line x1="941.555" y1="68.222" x2="941.555" y2="47.1513" stroke="#9A7D3C" stroke-width="3.0101" stroke-linecap="round"/>
<line x1="935.535" y1="113.373" x2="935.535" y2="92.3027" stroke="#9A7D3C" stroke-width="3.0101" stroke-linecap="round"/>
<line x1="953.596" y1="143.474" x2="953.596" y2="122.404" stroke="#9A7D3C" stroke-width="3.0101" stroke-linecap="round"/>
<path d="M1238.01 144.475C1236.35 144.475 1235 143.127 1235 141.465L1235 8.79747C1235 7.22458 1236.21 5.91687 1237.78 5.79623L1270.82 3.25461C1272.59 3.11818 1274.1 4.54138 1274.06 6.31987L1271.18 141.529C1271.15 143.166 1269.81 144.475 1268.17 144.475L1238.01 144.475Z" fill="#D5B777" stroke="#9A7D3C" stroke-width="3.0101"/>
<line x1="1242.53" y1="27.0806" x2="1242.53" y2="6.00995" stroke="#9A7D3C" stroke-width="3.0101" stroke-linecap="round"/>
<line x1="1251.56" y1="69.222" x2="1251.56" y2="48.1513" stroke="#9A7D3C" stroke-width="3.0101" stroke-linecap="round"/>
<line x1="1245.54" y1="114.373" x2="1245.54" y2="93.3027" stroke="#9A7D3C" stroke-width="3.0101" stroke-linecap="round"/>
<line x1="1263.6" y1="144.474" x2="1263.6" y2="123.404" stroke="#9A7D3C" stroke-width="3.0101" stroke-linecap="round"/>
<path d="M622.01 144.475C620.348 144.475 619 143.127 619 141.465L619 8.79747C619 7.22458 620.211 5.91687 621.779 5.79623L654.82 3.25461C656.594 3.11818 658.099 4.54138 658.061 6.31987L655.184 141.529C655.149 143.166 653.812 144.475 652.175 144.475L622.01 144.475Z" fill="#D5B777" stroke="#9A7D3C" stroke-width="3.0101"/>
<line x1="626.525" y1="27.0806" x2="626.525" y2="6.00995" stroke="#9A7D3C" stroke-width="3.0101" stroke-linecap="round"/>
<line x1="635.555" y1="69.222" x2="635.555" y2="48.1513" stroke="#9A7D3C" stroke-width="3.0101" stroke-linecap="round"/>
<line x1="629.535" y1="114.373" x2="629.535" y2="93.3027" stroke="#9A7D3C" stroke-width="3.0101" stroke-linecap="round"/>
<line x1="647.596" y1="144.474" x2="647.596" y2="123.404" stroke="#9A7D3C" stroke-width="3.0101" stroke-linecap="round"/>
<path d="M990.01 144.475C988.348 144.475 987 143.127 987 141.465L987 8.79747C987 7.22458 988.211 5.91687 989.779 5.79623L1022.82 3.25461C1024.59 3.11818 1026.1 4.54138 1026.06 6.31987L1023.18 141.529C1023.15 143.166 1021.81 144.475 1020.17 144.475L990.01 144.475Z" fill="#D5B777" stroke="#9A7D3C" stroke-width="3.0101"/>
<line x1="994.525" y1="27.0806" x2="994.525" y2="6.00995" stroke="#9A7D3C" stroke-width="3.0101" stroke-linecap="round"/>
<line x1="1003.56" y1="69.222" x2="1003.56" y2="48.1513" stroke="#9A7D3C" stroke-width="3.0101" stroke-linecap="round"/>
<line x1="997.535" y1="114.373" x2="997.535" y2="93.3027" stroke="#9A7D3C" stroke-width="3.0101" stroke-linecap="round"/>
<line x1="1015.6" y1="144.474" x2="1015.6" y2="123.404" stroke="#9A7D3C" stroke-width="3.0101" stroke-linecap="round"/>
<path d="M869.079 146.842C867.394 146.912 865.98 145.585 865.944 143.899L863.069 10.2058C863.032 8.46904 864.468 7.06126 866.204 7.13358L896.299 8.38756C897.886 8.45367 899.148 9.74116 899.183 11.3289L902.066 142.514C902.102 144.153 900.82 145.519 899.182 145.588L869.079 146.842Z" fill="#D5B777" stroke="#9A7D3C" stroke-width="3.0101"/>
<line x1="873.535" y1="145.465" x2="873.535" y2="124.394" stroke="#9A7D3C" stroke-width="3.0101" stroke-linecap="round"/>
<line x1="888.586" y1="109.344" x2="888.586" y2="88.2729" stroke="#9A7D3C" stroke-width="3.0101" stroke-linecap="round"/>
<line x1="870.525" y1="58.1717" x2="870.525" y2="37.101" stroke="#9A7D3C" stroke-width="3.0101" stroke-linecap="round"/>
<line x1="888.586" y1="31.0809" x2="888.586" y2="10.0102" stroke="#9A7D3C" stroke-width="3.0101" stroke-linecap="round"/>
<path d="M687.079 144.842C685.394 144.912 683.98 143.585 683.944 141.899L681.069 8.20578C681.032 6.46904 682.468 5.06126 684.204 5.13358L714.299 6.38756C715.886 6.45367 717.148 7.74116 717.183 9.3289L720.066 140.514C720.102 142.153 718.82 143.519 717.182 143.588L687.079 144.842Z" fill="#D5B777" stroke="#9A7D3C" stroke-width="3.0101"/>
<line x1="691.535" y1="143.465" x2="691.535" y2="122.394" stroke="#9A7D3C" stroke-width="3.0101" stroke-linecap="round"/>
<line x1="706.586" y1="107.344" x2="706.586" y2="86.2729" stroke="#9A7D3C" stroke-width="3.0101" stroke-linecap="round"/>
<line x1="688.525" y1="56.1717" x2="688.525" y2="35.101" stroke="#9A7D3C" stroke-width="3.0101" stroke-linecap="round"/>
<line x1="706.586" y1="29.0809" x2="706.586" y2="8.01019" stroke="#9A7D3C" stroke-width="3.0101" stroke-linecap="round"/>
<path d="M1055.08 142.842C1053.39 142.912 1051.98 141.585 1051.94 139.899L1049.07 6.20554C1049.03 4.4688 1050.47 3.06102 1052.2 3.13333L1082.3 4.38731C1083.89 4.45343 1085.15 5.74092 1085.18 7.32866L1088.07 138.514C1088.1 140.153 1086.82 141.519 1085.18 141.587L1055.08 142.842Z" fill="#D5B777" stroke="#9A7D3C" stroke-width="3.0101"/>
<line x1="1059.54" y1="141.464" x2="1059.54" y2="120.394" stroke="#9A7D3C" stroke-width="3.0101" stroke-linecap="round"/>
<line x1="1074.59" y1="105.343" x2="1074.59" y2="84.2726" stroke="#9A7D3C" stroke-width="3.0101" stroke-linecap="round"/>
<line x1="1056.53" y1="54.1715" x2="1056.53" y2="33.1008" stroke="#9A7D3C" stroke-width="3.0101" stroke-linecap="round"/>
<line x1="1074.59" y1="27.0806" x2="1074.59" y2="6.00995" stroke="#9A7D3C" stroke-width="3.0101" stroke-linecap="round"/>
<path d="M563.079 145.872C561.394 145.942 559.98 144.615 559.944 142.929L557.069 9.23605C557.032 7.49931 558.468 6.09154 560.204 6.16385L590.299 7.41783C591.886 7.48395 593.148 8.77144 593.183 10.3592L596.066 141.544C596.102 143.183 594.82 144.55 593.182 144.618L563.079 145.872Z" fill="#D5B777" stroke="#9A7D3C" stroke-width="3.0101"/>
<line x1="564.525" y1="30.1112" x2="564.525" y2="9.04046" stroke="#9A7D3C" stroke-width="3.0101" stroke-linecap="round"/>
<line x1="579.576" y1="78.2728" x2="579.576" y2="57.2021" stroke="#9A7D3C" stroke-width="3.0101" stroke-linecap="round"/>
<line x1="570.545" y1="120.414" x2="570.545" y2="99.3434" stroke="#9A7D3C" stroke-width="3.0101" stroke-linecap="round"/>
<line x1="588.606" y1="144.495" x2="588.606" y2="123.424" stroke="#9A7D3C" stroke-width="3.0101" stroke-linecap="round"/>
<path d="M501.079 144.872C499.394 144.942 497.98 143.615 497.944 141.929L495.069 8.23605C495.032 6.49931 496.468 5.09154 498.204 5.16385L528.299 6.41783C529.886 6.48395 531.148 7.77144 531.183 9.35918L534.066 140.544C534.102 142.183 532.82 143.55 531.182 143.618L501.079 144.872Z" fill="#D5B777" stroke="#9A7D3C" stroke-width="3.0101"/>
<line x1="502.525" y1="29.1112" x2="502.525" y2="8.04046" stroke="#9A7D3C" stroke-width="3.0101" stroke-linecap="round"/>
<line x1="517.576" y1="77.2728" x2="517.576" y2="56.2021" stroke="#9A7D3C" stroke-width="3.0101" stroke-linecap="round"/>
<line x1="508.545" y1="119.414" x2="508.545" y2="98.3434" stroke="#9A7D3C" stroke-width="3.0101" stroke-linecap="round"/>
<line x1="526.606" y1="143.495" x2="526.606" y2="122.424" stroke="#9A7D3C" stroke-width="3.0101" stroke-linecap="round"/>
<path d="M1179.08 142.842C1177.39 142.912 1175.98 141.585 1175.94 139.899L1173.07 6.20578C1173.03 4.46904 1174.47 3.06126 1176.2 3.13358L1206.3 4.38756C1207.89 4.45367 1209.15 5.74116 1209.18 7.3289L1212.07 138.514C1212.1 140.153 1210.82 141.519 1209.18 141.588L1179.08 142.842Z" fill="#D5B777" stroke="#9A7D3C" stroke-width="3.0101"/>
<line x1="1180.53" y1="27.0809" x2="1180.53" y2="6.01019" stroke="#9A7D3C" stroke-width="3.0101" stroke-linecap="round"/>
<line x1="1195.58" y1="75.2425" x2="1195.58" y2="54.1718" stroke="#9A7D3C" stroke-width="3.0101" stroke-linecap="round"/>
<line x1="1186.55" y1="117.384" x2="1186.55" y2="96.3132" stroke="#9A7D3C" stroke-width="3.0101" stroke-linecap="round"/>
<line x1="1204.61" y1="141.465" x2="1204.61" y2="120.394" stroke="#9A7D3C" stroke-width="3.0101" stroke-linecap="round"/>
<path d="M746.01 145.747C744.348 145.747 743 144.399 743 142.736L743 10.0694C743 8.49655 744.211 7.18884 745.779 7.06821L778.82 4.52658C780.594 4.39015 782.099 5.81335 782.061 7.59184L779.184 142.801C779.149 144.438 777.812 145.747 776.175 145.747L746.01 145.747Z" fill="#D5B777" stroke="#9A7D3C" stroke-width="3.0101"/>
<line x1="747.515" y1="145.746" x2="747.515" y2="124.676" stroke="#9A7D3C" stroke-width="3.0101" stroke-linecap="round"/>
<line x1="768.586" y1="124.676" x2="768.586" y2="103.605" stroke="#9A7D3C" stroke-width="3.0101" stroke-linecap="round"/>
<line x1="753.535" y1="73.504" x2="753.535" y2="52.4333" stroke="#9A7D3C" stroke-width="3.0101" stroke-linecap="round"/>
<line x1="765.576" y1="28.3526" x2="765.576" y2="7.28192" stroke="#9A7D3C" stroke-width="3.0101" stroke-linecap="round"/>
<path d="M1114.01 145.747C1112.35 145.747 1111 144.399 1111 142.736L1111 10.0694C1111 8.49655 1112.21 7.18884 1113.78 7.06821L1146.82 4.52658C1148.59 4.39015 1150.1 5.81335 1150.06 7.59184L1147.18 142.801C1147.15 144.438 1145.81 145.747 1144.17 145.747L1114.01 145.747Z" fill="#D5B777" stroke="#9A7D3C" stroke-width="3.0101"/>
<line x1="1115.52" y1="145.746" x2="1115.52" y2="124.676" stroke="#9A7D3C" stroke-width="3.0101" stroke-linecap="round"/>
<line x1="1136.59" y1="124.676" x2="1136.59" y2="103.605" stroke="#9A7D3C" stroke-width="3.0101" stroke-linecap="round"/>
<line x1="1121.54" y1="73.504" x2="1121.54" y2="52.4333" stroke="#9A7D3C" stroke-width="3.0101" stroke-linecap="round"/>
<line x1="1133.58" y1="28.3526" x2="1133.58" y2="7.28192" stroke="#9A7D3C" stroke-width="3.0101" stroke-linecap="round"/>
<path d="M809.34 142.871C807.748 142.796 806.491 141.492 806.474 139.898L805.034 10.3255C805.015 8.65005 806.368 7.28192 808.044 7.28192L836.573 7.28192C838.248 7.28192 839.601 8.64984 839.583 10.3251L838.145 141.119C838.127 142.825 836.696 144.174 834.992 144.093L809.34 142.871Z" fill="#D5B777" stroke="#9A7D3C" stroke-width="3.0101"/>
<line x1="815.535" y1="142.736" x2="815.535" y2="121.666" stroke="#9A7D3C" stroke-width="3.0101" stroke-linecap="round"/>
<line x1="830.586" y1="28.3526" x2="830.586" y2="7.28192" stroke="#9A7D3C" stroke-width="3.0101" stroke-linecap="round"/>
<line x1="830.586" y1="121.666" x2="830.586" y2="100.595" stroke="#9A7D3C" stroke-width="3.0101" stroke-linecap="round"/>
<line x1="818.545" y1="61.4637" x2="818.545" y2="40.393" stroke="#9A7D3C" stroke-width="3.0101" stroke-linecap="round"/>
<defs>
<filter id="filter0_d_1_4561" x="-120.564" y="14.4361" width="1468.13" height="32.1277" filterUnits="userSpaceOnUse" color-interpolation-filters="sRGB">
<feFlood flood-opacity="0" result="BackgroundImageFix"/>
<feColorMatrix in="SourceAlpha" type="matrix" values="0 0 0 0 0 0 0 0 0 0 0 0 0 0 0 0 0 0 127 0" result="hardAlpha"/>
<feMorphology radius="5.28187" operator="dilate" in="SourceAlpha" result="effect1_dropShadow_1_4561"/>
<feOffset/>
<feComposite in2="hardAlpha" operator="out"/>
<feColorMatrix type="matrix" values="0 0 0 0 0.281908 0 0 0 0 0.387944 0 0 0 0 0.546999 0 0 0 0.02 0"/>
<feBlend mode="normal" in2="BackgroundImageFix" result="effect1_dropShadow_1_4561"/>
<feBlend mode="normal" in="SourceGraphic" in2="effect1_dropShadow_1_4561" result="shape"/>
</filter>
<filter id="filter1_d_1_4561" x="-120.564" y="103.436" width="1468.13" height="32.1277" filterUnits="userSpaceOnUse" color-interpolation-filters="sRGB">
<feFlood flood-opacity="0" result="BackgroundImageFix"/>
<feColorMatrix in="SourceAlpha" type="matrix" values="0 0 0 0 0 0 0 0 0 0 0 0 0 0 0 0 0 0 127 0" result="hardAlpha"/>
<feMorphology radius="5.28187" operator="dilate" in="SourceAlpha" result="effect1_dropShadow_1_4561"/>
<feOffset/>
<feComposite in2="hardAlpha" operator="out"/>
<feColorMatrix type="matrix" values="0 0 0 0 0.281908 0 0 0 0 0.387944 0 0 0 0 0.546999 0 0 0 0.02 0"/>
<feBlend mode="normal" in2="BackgroundImageFix" result="effect1_dropShadow_1_4561"/>
<feBlend mode="normal" in="SourceGraphic" in2="effect1_dropShadow_1_4561" result="shape"/>
</filter>
</defs>
</svg>
