<svg width="100" height="100" viewBox="0 0 100 100" fill="none" xmlns="http://www.w3.org/2000/svg">
<g clip-path="url(#clip0_1_2633)">
<rect width="100" height="100" fill="#EAEFD3"/>
<path d="M37.4247 90.1613C37.4247 89.8465 37.6799 89.5914 37.9946 89.5914H63.112C63.4098 89.5914 63.6574 89.8207 63.6803 90.1176L64.1615 96.3732C64.1873 96.709 63.9178 96.9938 63.5811 96.9866L37.9825 96.442C37.6725 96.4354 37.4247 96.1822 37.4247 95.8722V90.1613Z" fill="#D5B777" stroke="#9A7D3C" stroke-width="0.569892"/>
<line x1="59.6506" y1="91.0161" x2="63.6398" y2="91.0161" stroke="#9A7D3C" stroke-width="0.569892" stroke-linecap="round"/>
<line x1="51.6721" y1="92.7258" x2="55.6613" y2="92.7258" stroke="#9A7D3C" stroke-width="0.569892" stroke-linecap="round"/>
<line x1="43.1237" y1="91.586" x2="47.1129" y2="91.586" stroke="#9A7D3C" stroke-width="0.569892" stroke-linecap="round"/>
<line x1="37.4247" y1="95.0054" x2="41.414" y2="95.0054" stroke="#9A7D3C" stroke-width="0.569892" stroke-linecap="round"/>
<path d="M37.4247 30.1613C37.4247 29.8465 37.6799 29.5914 37.9946 29.5914H63.112C63.4098 29.5914 63.6574 29.8207 63.6803 30.1176L64.1615 36.3732C64.1873 36.709 63.9178 36.9938 63.5811 36.9866L37.9825 36.442C37.6725 36.4354 37.4247 36.1822 37.4247 35.8722V30.1613Z" fill="#D5B777" stroke="#9A7D3C" stroke-width="0.569892"/>
<line x1="59.6506" y1="31.0161" x2="63.6398" y2="31.0161" stroke="#9A7D3C" stroke-width="0.569892" stroke-linecap="round"/>
<line x1="51.6721" y1="32.7258" x2="55.6613" y2="32.7258" stroke="#9A7D3C" stroke-width="0.569892" stroke-linecap="round"/>
<line x1="43.1237" y1="31.586" x2="47.1129" y2="31.586" stroke="#9A7D3C" stroke-width="0.569892" stroke-linecap="round"/>
<line x1="37.4247" y1="35.0054" x2="41.414" y2="35.0054" stroke="#9A7D3C" stroke-width="0.569892" stroke-linecap="round"/>
<path d="M37.7339 79.3444C37.7206 79.0255 37.9719 78.7578 38.291 78.7509L63.6028 78.2066C63.9316 78.1995 64.1981 78.4715 64.1844 78.8001L63.947 84.498C63.9345 84.7984 63.6907 85.0374 63.3901 85.044L38.5533 85.5899C38.243 85.5967 37.9843 85.3539 37.9714 85.0438L37.7339 79.3444Z" fill="#D5B777" stroke="#9A7D3C" stroke-width="0.569892"/>
<line x1="37.9946" y1="80.1882" x2="41.9838" y2="80.1882" stroke="#9A7D3C" stroke-width="0.569892" stroke-linecap="round"/>
<line x1="44.8333" y1="83.0376" x2="48.8226" y2="83.0376" stroke="#9A7D3C" stroke-width="0.569892" stroke-linecap="round"/>
<line x1="54.5215" y1="79.6183" x2="58.5107" y2="79.6183" stroke="#9A7D3C" stroke-width="0.569892" stroke-linecap="round"/>
<line x1="59.6505" y1="83.0376" x2="63.6398" y2="83.0376" stroke="#9A7D3C" stroke-width="0.569892" stroke-linecap="round"/>
<path d="M37.7339 17.3444C37.7206 17.0255 37.9719 16.7578 38.291 16.7509L63.6028 16.2066C63.9316 16.1995 64.1981 16.4715 64.1844 16.8001L63.947 22.498C63.9345 22.7984 63.6907 23.0374 63.3901 23.044L38.5533 23.5899C38.243 23.5967 37.9843 23.3539 37.9714 23.0438L37.7339 17.3444Z" fill="#D5B777" stroke="#9A7D3C" stroke-width="0.569892"/>
<line x1="37.9946" y1="18.1882" x2="41.9838" y2="18.1882" stroke="#9A7D3C" stroke-width="0.569892" stroke-linecap="round"/>
<line x1="44.8333" y1="21.0376" x2="48.8226" y2="21.0376" stroke="#9A7D3C" stroke-width="0.569892" stroke-linecap="round"/>
<line x1="54.5215" y1="17.6183" x2="58.5107" y2="17.6183" stroke="#9A7D3C" stroke-width="0.569892" stroke-linecap="round"/>
<line x1="59.6505" y1="21.0376" x2="63.6398" y2="21.0376" stroke="#9A7D3C" stroke-width="0.569892" stroke-linecap="round"/>
<path d="M36.0242 68.5165C36.0109 68.1975 36.2622 67.9299 36.5814 67.923L61.8931 67.3787C62.2219 67.3716 62.4884 67.6435 62.4747 67.9721L62.2373 73.67C62.2248 73.9704 61.981 74.2095 61.6804 74.2161L36.8436 74.7619C36.5333 74.7687 36.2746 74.526 36.2617 74.2159L36.0242 68.5165Z" fill="#D5B777" stroke="#9A7D3C" stroke-width="0.569892"/>
<line x1="57.9409" y1="68.7903" x2="61.9301" y2="68.7903" stroke="#9A7D3C" stroke-width="0.569892" stroke-linecap="round"/>
<line x1="48.8226" y1="71.6398" x2="52.8118" y2="71.6398" stroke="#9A7D3C" stroke-width="0.569892" stroke-linecap="round"/>
<line x1="40.8441" y1="69.9301" x2="44.8333" y2="69.9301" stroke="#9A7D3C" stroke-width="0.569892" stroke-linecap="round"/>
<line x1="36.2849" y1="73.3495" x2="40.2742" y2="73.3495" stroke="#9A7D3C" stroke-width="0.569892" stroke-linecap="round"/>
<path d="M36.0242 5.51648C36.0109 5.19752 36.2622 4.92985 36.5814 4.92299L61.8931 4.37865C62.2219 4.37158 62.4884 4.64353 62.4747 4.97214L62.2373 10.67C62.2248 10.9704 61.981 11.2095 61.6804 11.2161L36.8436 11.7619C36.5333 11.7687 36.2746 11.526 36.2617 11.2159L36.0242 5.51648Z" fill="#D5B777" stroke="#9A7D3C" stroke-width="0.569892"/>
<line x1="57.9409" y1="5.79033" x2="61.9301" y2="5.79033" stroke="#9A7D3C" stroke-width="0.569892" stroke-linecap="round"/>
<line x1="48.8226" y1="8.63978" x2="52.8118" y2="8.63978" stroke="#9A7D3C" stroke-width="0.569892" stroke-linecap="round"/>
<line x1="40.8441" y1="6.93011" x2="44.8333" y2="6.93011" stroke="#9A7D3C" stroke-width="0.569892" stroke-linecap="round"/>
<line x1="36.2849" y1="10.3495" x2="40.2742" y2="10.3495" stroke="#9A7D3C" stroke-width="0.569892" stroke-linecap="round"/>
<path d="M36.9946 55.3978C36.9946 55.0831 37.2498 54.828 37.5645 54.828H62.6819C62.9797 54.828 63.2273 55.0572 63.2502 55.3541L63.7314 61.6097C63.7572 61.9455 63.4877 62.2304 63.151 62.2232L37.5524 61.6785C37.2424 61.6719 36.9946 61.4188 36.9946 61.1088V55.3978Z" fill="#D5B777" stroke="#9A7D3C" stroke-width="0.569892"/>
<line x1="36.9946" y1="55.6828" x2="40.9839" y2="55.6828" stroke="#9A7D3C" stroke-width="0.569892" stroke-linecap="round"/>
<line x1="40.9839" y1="59.672" x2="44.9731" y2="59.672" stroke="#9A7D3C" stroke-width="0.569892" stroke-linecap="round"/>
<line x1="50.672" y1="56.8226" x2="54.6613" y2="56.8226" stroke="#9A7D3C" stroke-width="0.569892" stroke-linecap="round"/>
<line x1="59.2204" y1="59.1022" x2="63.2097" y2="59.1022" stroke="#9A7D3C" stroke-width="0.569892" stroke-linecap="round"/>
<path d="M37.539 42.8217C37.5533 42.5203 37.8001 42.2823 38.1019 42.279L62.6335 42.0064C62.9507 42.0029 63.2097 42.259 63.2097 42.5763V47.9776C63.2097 48.2948 62.9507 48.5509 62.6335 48.5474L37.8707 48.2753C37.5478 48.2718 37.2923 48.0009 37.3077 47.6783L37.539 42.8217Z" fill="#D5B777" stroke="#9A7D3C" stroke-width="0.569892"/>
<line x1="37.5645" y1="43.9946" x2="41.5538" y2="43.9946" stroke="#9A7D3C" stroke-width="0.569892" stroke-linecap="round"/>
<line x1="59.2204" y1="46.8441" x2="63.2097" y2="46.8441" stroke="#9A7D3C" stroke-width="0.569892" stroke-linecap="round"/>
<line x1="41.5538" y1="46.8441" x2="45.543" y2="46.8441" stroke="#9A7D3C" stroke-width="0.569892" stroke-linecap="round"/>
<line x1="52.9516" y1="44.5645" x2="56.9409" y2="44.5645" stroke="#9A7D3C" stroke-width="0.569892" stroke-linecap="round"/>
<g filter="url(#filter0_d_1_2633)">
<rect x="40" width="2" height="100" fill="#D1D6C2"/>
<rect x="39.5" y="-0.5" width="3" height="101" stroke="#8E9093"/>
</g>
<g filter="url(#filter1_d_1_2633)">
<rect x="58" width="2" height="100" fill="#D1D6C2"/>
<rect x="57.5" y="-0.5" width="3" height="101" stroke="#8E9093"/>
</g>
<ellipse cx="12.5" cy="24" rx="8.5" ry="9" fill="#E6E5C3"/>
<ellipse cx="86" cy="25" rx="3" ry="5" fill="#E6E5C3"/>
<ellipse cx="20.5" cy="75" rx="5.5" ry="4" fill="#E6E5C3"/>
<ellipse cx="86" cy="78" rx="3" ry="5" fill="#E6E5C3"/>
<ellipse cx="71" cy="93" rx="3" ry="5" fill="#E6E5C3"/>
<ellipse cx="10" cy="86" rx="3" ry="5" fill="#E6E5C3"/>
<ellipse cx="92" cy="10" rx="3" ry="5" fill="#E6E5C3"/>
<ellipse cx="21" cy="8" rx="3" ry="5" fill="#E6E5C3"/>
</g>
<rect x="0.25" y="0.25" width="99.5" height="99.5" stroke="#D4B777" stroke-opacity="0.25" stroke-width="0.5"/>
<defs>
<filter id="filter0_d_1_2633" x="38" y="-2" width="6" height="104" filterUnits="userSpaceOnUse" color-interpolation-filters="sRGB">
<feFlood flood-opacity="0" result="BackgroundImageFix"/>
<feColorMatrix in="SourceAlpha" type="matrix" values="0 0 0 0 0 0 0 0 0 0 0 0 0 0 0 0 0 0 127 0" result="hardAlpha"/>
<feMorphology radius="1" operator="dilate" in="SourceAlpha" result="effect1_dropShadow_1_2633"/>
<feOffset/>
<feComposite in2="hardAlpha" operator="out"/>
<feColorMatrix type="matrix" values="0 0 0 0 0.281908 0 0 0 0 0.387944 0 0 0 0 0.546999 0 0 0 0.02 0"/>
<feBlend mode="normal" in2="BackgroundImageFix" result="effect1_dropShadow_1_2633"/>
<feBlend mode="normal" in="SourceGraphic" in2="effect1_dropShadow_1_2633" result="shape"/>
</filter>
<filter id="filter1_d_1_2633" x="56" y="-2" width="6" height="104" filterUnits="userSpaceOnUse" color-interpolation-filters="sRGB">
<feFlood flood-opacity="0" result="BackgroundImageFix"/>
<feColorMatrix in="SourceAlpha" type="matrix" values="0 0 0 0 0 0 0 0 0 0 0 0 0 0 0 0 0 0 127 0" result="hardAlpha"/>
<feMorphology radius="1" operator="dilate" in="SourceAlpha" result="effect1_dropShadow_1_2633"/>
<feOffset/>
<feComposite in2="hardAlpha" operator="out"/>
<feColorMatrix type="matrix" values="0 0 0 0 0.281908 0 0 0 0 0.387944 0 0 0 0 0.546999 0 0 0 0.02 0"/>
<feBlend mode="normal" in2="BackgroundImageFix" result="effect1_dropShadow_1_2633"/>
<feBlend mode="normal" in="SourceGraphic" in2="effect1_dropShadow_1_2633" result="shape"/>
</filter>
<clipPath id="clip0_1_2633">
<rect width="100" height="100" fill="white"/>
</clipPath>
</defs>
</svg>
