<svg width="818" height="141" viewBox="0 0 818 141" fill="none" xmlns="http://www.w3.org/2000/svg">
<path d="M766.778 132.557C759.232 132.557 752.117 131.21 745.433 128.515C738.857 125.712 733.144 121.777 728.293 116.71C723.549 111.644 719.992 105.661 717.62 98.7613L738.156 89.5442C741.175 96.1201 745.325 101.295 750.608 105.068C755.998 108.841 761.927 110.727 768.395 110.727C771.845 110.727 774.809 110.188 777.289 109.11C779.768 108.032 781.709 106.577 783.11 104.744C784.511 102.804 785.212 100.54 785.212 97.9528C785.212 95.1499 784.35 92.7782 782.625 90.8378C780.9 88.7896 778.205 87.1725 774.54 85.9867L750.931 78.2249C741.337 75.0987 734.114 70.6788 729.263 64.9652C724.412 59.1439 721.986 52.1906 721.986 44.1055C721.986 36.9905 723.711 30.738 727.161 25.3479C730.718 19.9577 735.623 15.7534 741.876 12.735C748.236 9.71651 755.513 8.20728 763.706 8.20728C770.928 8.20728 777.612 9.447 783.757 11.9265C789.902 14.4059 795.184 17.9095 799.604 22.4372C804.131 26.9649 807.527 32.4089 809.791 38.7693L789.416 47.9864C787.153 42.3806 783.757 38.0146 779.229 34.8884C774.701 31.6543 769.527 30.0373 763.706 30.0373C760.364 30.0373 757.399 30.5763 754.812 31.6543C752.225 32.7323 750.23 34.2954 748.829 36.3437C747.427 38.2841 746.727 40.548 746.727 43.1352C746.727 45.9381 747.643 48.4176 749.476 50.5736C751.308 52.6219 754.057 54.2389 757.723 55.4247L780.846 62.8631C790.548 65.9894 797.771 70.3554 802.514 75.9611C807.366 81.5668 809.791 88.4122 809.791 96.4974C809.791 103.505 807.958 109.757 804.293 115.255C800.628 120.645 795.561 124.903 789.093 128.03C782.733 131.048 775.294 132.557 766.778 132.557Z" fill="#D4B777"/>
<path d="M650.416 130.617V78.0632L610.313 10.1477H638.935L668.042 61.246H657.854L686.799 10.1477H715.421L675.48 77.9015V130.617H650.416Z" fill="#D4B777"/>
<path d="M512.95 130.617L553.699 10.1477H587.01L627.76 130.617H600.432L592.347 106.038H548.202L540.116 130.617H512.95ZM555.155 84.2079H585.393L566.959 27.2883H573.751L555.155 84.2079Z" fill="#D4B777"/>
<path d="M390.51 130.617L358.978 10.1477H386.144L409.915 111.051H402.638L427.702 10.1477H453.575L478.639 111.051H471.362L495.132 10.1477H522.299L490.766 130.617H461.66L436.434 33.5947H444.843L419.617 130.617H390.51Z" fill="#D4B777"/>
<path d="M290.81 130.617V10.1477H315.874V108.787H366.811V130.617H290.81Z" fill="#D4B777"/>
<path d="M244.383 130.617V10.1477H269.447V130.617H244.383Z" fill="#D4B777"/>
<path d="M117.054 130.617L157.804 10.1477H191.115L231.864 130.617H204.536L196.451 106.038H152.306L144.221 130.617H117.054ZM159.259 84.2079H189.498L171.063 27.2883H177.855L159.259 84.2079Z" fill="#D4B777"/>
<path d="M8.3908 130.617V10.1477H54.4763C62.7771 10.1477 70.1077 11.603 76.468 14.5137C82.9361 17.4244 88.0029 21.7365 91.6681 27.45C95.3334 33.1635 97.1661 40.2246 97.1661 48.6332C97.1661 56.8261 95.2795 63.8333 91.5064 69.6546C87.7334 75.3681 82.6666 79.6802 76.3063 82.5909L103.796 130.617H75.6595L45.906 77.4164L62.0764 86.9569H33.4549V130.617H8.3908ZM33.4549 65.1269H54.638C58.1955 65.1269 61.2679 64.4262 63.8551 63.0248C66.4424 61.6234 68.4367 59.6829 69.8382 57.2035C71.3474 54.724 72.102 51.8672 72.102 48.6332C72.102 45.2913 71.3474 42.3806 69.8382 39.9012C68.4367 37.4217 66.4424 35.4813 63.8551 34.0798C61.2679 32.6784 58.1955 31.9777 54.638 31.9777H33.4549V65.1269Z" fill="#D4B777"/>
<path fill-rule="evenodd" clip-rule="evenodd" d="M742.364 136.126C742.314 136.106 742.265 136.086 742.215 136.065C734.638 132.835 727.998 128.27 722.364 122.386L722.324 122.343L722.301 122.319C716.727 116.365 712.587 109.366 709.859 101.429C708.479 97.4154 710.387 93.0116 714.26 91.2736L734.796 82.0565C735.593 81.6987 736.417 81.4785 737.242 81.3859C731.615 78.4255 726.81 74.7575 723.006 70.2772L722.958 70.2194C716.792 62.8199 713.779 53.9719 713.779 44.1055C713.779 35.6037 715.86 27.7794 720.248 20.9237C720.259 20.9058 720.271 20.888 720.282 20.8702L720.311 20.8269C724.745 14.109 730.826 8.95566 738.308 5.3439L738.357 5.32031C745.983 1.70111 754.494 0 763.706 0C771.886 0 779.623 1.40802 786.828 4.31544C793.96 7.19333 800.198 11.3068 805.442 16.6688C810.86 22.0975 814.879 28.589 817.523 36.0171C818.955 40.0393 817.064 44.4873 813.174 46.247L792.799 55.4641C790.763 56.3853 788.439 56.4361 786.364 55.6049C784.289 54.7736 782.643 53.1321 781.806 51.0597C780.082 46.7896 777.643 43.7667 774.566 41.6421C774.53 41.6173 774.494 41.5922 774.459 41.5669C771.39 39.3749 767.901 38.2445 763.706 38.2445C761.243 38.2445 759.383 38.6409 757.969 39.2302C756.651 39.7794 755.996 40.4038 755.602 40.9782C755.563 41.0356 755.523 41.0926 755.482 41.149C755.174 41.5759 754.934 42.1259 754.934 43.1352C754.934 43.9355 755.127 44.5201 755.658 45.1728C756.244 45.7916 757.544 46.74 760.244 47.6144C760.246 47.6149 760.247 47.6154 760.249 47.616L783.36 55.0501L783.363 55.0513C793.965 58.4674 802.706 63.4974 808.752 70.6264C814.993 77.8565 817.998 86.6486 817.998 96.4974C817.998 105.022 815.742 112.878 811.122 119.808L811.08 119.87C806.524 126.57 800.294 131.732 792.665 135.419L792.612 135.444C784.946 139.083 776.261 140.765 766.778 140.765C758.23 140.765 750.069 139.233 742.364 136.126ZM802.515 75.9611C797.771 70.3553 790.548 65.9893 780.846 62.8631L757.723 55.4247C754.057 54.2389 751.308 52.6219 749.476 50.5736C747.643 48.4176 746.727 45.9381 746.727 43.1352C746.727 40.548 747.428 38.2841 748.829 36.3437C750.23 34.2954 752.225 32.7323 754.812 31.6543C757.399 30.5763 760.364 30.0373 763.706 30.0373C769.527 30.0373 774.702 31.6543 779.229 34.8884C783.029 37.5121 786.032 41.0091 788.237 45.3794C788.66 46.2163 789.053 47.0853 789.417 47.9863L809.791 38.7692C808.893 36.2462 807.817 33.8674 806.563 31.6328C806.501 31.5234 806.44 31.4143 806.377 31.3056C804.505 28.0371 802.248 25.0809 799.604 22.4372C795.184 17.9095 789.902 14.4059 783.757 11.9265C777.612 9.447 770.928 8.20727 763.706 8.20727C755.513 8.20727 748.236 9.7165 741.876 12.735C735.623 15.7534 730.718 19.9577 727.161 25.3478C723.711 30.738 721.986 36.9905 721.986 44.1055C721.986 52.1906 724.412 59.1439 729.263 64.9652C734.114 70.6788 741.337 75.0986 750.931 78.2249L774.54 85.9867C778.205 87.1725 780.9 88.7896 782.625 90.8378C784.35 92.7782 785.212 95.1499 785.212 97.9528C785.212 100.54 784.512 102.804 783.11 104.744C781.709 106.577 779.768 108.032 777.289 109.11C774.809 110.188 771.845 110.727 768.395 110.727C761.927 110.727 755.998 108.841 750.608 105.068C745.325 101.295 741.175 96.1201 738.157 89.5442L717.62 98.7613C719.992 105.661 723.549 111.644 728.293 116.71C733.144 121.777 738.857 125.712 745.433 128.515C752.117 131.21 759.232 132.557 766.778 132.557C775.294 132.557 782.733 131.048 789.093 128.03C795.561 124.903 800.628 120.645 804.293 115.255C807.959 109.757 809.791 103.505 809.791 96.4974C809.791 88.4122 807.366 81.5668 802.515 75.9611ZM755.346 98.3664C759.373 101.176 763.654 102.52 768.395 102.52C771.018 102.52 772.812 102.107 774.016 101.584C775.358 101 776.089 100.378 776.518 99.8504C776.796 99.4354 777.005 98.8936 777.005 97.9528C777.005 96.9864 776.769 96.6036 776.491 96.2904C776.442 96.2357 776.394 96.1804 776.347 96.1244C775.955 95.6593 774.824 94.7048 772.013 93.7954L771.977 93.7834L748.388 86.0284C748.384 86.027 748.38 86.0257 748.376 86.0243C747.174 85.6325 745.996 85.2192 744.844 84.7836C745.137 85.1967 745.396 85.643 745.615 86.1204C748.1 91.5336 751.372 95.5191 755.346 98.3664Z" fill="#AD9255"/>
<path fill-rule="evenodd" clip-rule="evenodd" d="M650.416 138.824C645.883 138.824 642.209 135.15 642.209 130.617V80.3054L603.246 14.3207C601.748 11.7835 601.725 8.63785 603.186 6.0789C604.646 3.51995 607.367 1.94043 610.313 1.94043H638.935C641.884 1.94043 644.607 3.52283 646.066 6.08548L662.914 35.6621L679.658 6.10255C681.115 3.53031 683.843 1.94043 686.799 1.94043H715.421C718.366 1.94043 721.086 3.51882 722.547 6.07631C724.008 8.63381 723.987 11.7782 722.491 14.3156L683.687 80.1405V130.617C683.687 135.15 680.013 138.824 675.48 138.824H650.416ZM675.48 77.9015L715.421 10.1477H686.799L662.934 52.2789L638.935 10.1477H610.313L650.416 78.0632V130.617H675.48V77.9015Z" fill="#AD9255"/>
<path fill-rule="evenodd" clip-rule="evenodd" d="M506.281 135.401C504.74 133.252 504.328 130.492 505.176 127.987L545.925 7.51792C547.053 4.18417 550.18 1.94043 553.699 1.94043H587.01C590.53 1.94043 593.657 4.18417 594.785 7.51792L635.534 127.987C636.382 130.492 635.97 133.252 634.428 135.401C632.887 137.55 630.404 138.824 627.76 138.824H600.432C596.887 138.824 593.743 136.549 592.635 133.181L586.406 114.245H554.142L547.913 133.181C546.805 136.549 543.661 138.824 540.116 138.824H512.95C510.306 138.824 507.823 137.55 506.281 135.401ZM548.202 106.038H592.347L600.432 130.617H627.76L587.01 10.1477H553.699L512.95 130.617H540.116L548.202 106.038ZM555.155 84.2079H585.393L570.34 37.7277L555.155 84.2079ZM570.306 64.2601L566.47 76.0007H574.108L570.306 64.2601Z" fill="#AD9255"/>
<path fill-rule="evenodd" clip-rule="evenodd" d="M390.51 138.824C386.778 138.824 383.515 136.306 382.57 132.695L351.038 12.2259C350.394 9.76559 350.927 7.14574 352.481 5.13258C354.035 3.11942 356.435 1.94043 358.978 1.94043H386.144C389.952 1.94043 393.26 4.55945 394.133 8.26577L406.584 61.1199L419.737 8.16916C420.646 4.5097 423.931 1.94043 427.702 1.94043H453.575C457.345 1.94043 460.631 4.5097 461.54 8.16916L474.693 61.1198L487.144 8.26577C488.017 4.55945 491.325 1.94043 495.132 1.94043H522.299C524.842 1.94043 527.241 3.11942 528.795 5.13258C530.349 7.14574 530.882 9.76559 530.238 12.2259L498.706 132.695C497.761 136.306 494.499 138.824 490.766 138.824H461.66C457.922 138.824 454.657 136.299 453.717 132.682L440.638 82.381L427.56 132.682C426.62 136.299 423.354 138.824 419.617 138.824H390.51ZM440.638 49.7651L461.66 130.617H490.766L522.299 10.1477H495.132L474.904 96.0155L453.575 10.1477H427.702L406.373 96.0155L386.144 10.1477H358.978L390.51 130.617H419.617L440.638 49.7651Z" fill="#AD9255"/>
<path fill-rule="evenodd" clip-rule="evenodd" d="M290.81 138.824C286.277 138.824 282.603 135.15 282.603 130.617V10.1477C282.603 5.61495 286.277 1.94043 290.81 1.94043H315.874C320.407 1.94043 324.081 5.61495 324.081 10.1477V100.58H366.811C371.343 100.58 375.018 104.254 375.018 108.787V130.617C375.018 135.15 371.343 138.824 366.811 138.824H290.81ZM315.874 108.787V10.1477H290.81V130.617H366.811V108.787H315.874Z" fill="#AD9255"/>
<path fill-rule="evenodd" clip-rule="evenodd" d="M244.383 138.824C239.851 138.824 236.176 135.15 236.176 130.617V10.1477C236.176 5.61495 239.851 1.94043 244.383 1.94043H269.447C273.98 1.94043 277.655 5.61495 277.655 10.1477V130.617C277.655 135.15 273.98 138.824 269.447 138.824H244.383ZM244.383 130.617H269.447V10.1477H244.383V130.617Z" fill="#AD9255"/>
<path fill-rule="evenodd" clip-rule="evenodd" d="M110.386 135.401C108.844 133.252 108.432 130.492 109.28 127.987L150.029 7.51792C151.157 4.18417 154.284 1.94043 157.804 1.94043H191.115C194.634 1.94043 197.761 4.18417 198.889 7.51792L239.638 127.987C240.486 130.492 240.074 133.252 238.533 135.401C236.991 137.55 234.508 138.824 231.864 138.824H204.536C200.991 138.824 197.847 136.549 196.74 133.181L190.511 114.245H158.246L152.017 133.181C150.909 136.549 147.765 138.824 144.221 138.824H117.054C114.41 138.824 111.927 137.55 110.386 135.401ZM152.306 106.038H196.451L204.536 130.617H231.864L191.115 10.1477H157.804L117.054 130.617H144.221L152.306 106.038ZM159.259 84.2079H189.498L174.444 37.7277L159.259 84.2079ZM174.41 64.2601L170.574 76.0007H178.213L174.41 64.2601Z" fill="#AD9255"/>
<path fill-rule="evenodd" clip-rule="evenodd" d="M8.3908 138.824C3.85805 138.824 0.183533 135.15 0.183533 130.617V10.1477C0.183533 5.61495 3.85805 1.94043 8.3908 1.94043H54.4763C63.729 1.94043 72.2522 3.56328 79.8598 7.04003C87.6993 10.5728 94.0166 15.9109 98.5762 23.0184C103.272 30.3383 105.373 39.0288 105.373 48.6332C105.373 58.1187 103.174 66.7426 98.3936 74.1185L98.3551 74.1773C95.3803 78.6821 91.7351 82.4843 87.4653 85.5649L110.919 126.54C112.373 129.08 112.364 132.202 110.896 134.734C109.428 137.266 106.723 138.824 103.796 138.824H75.6595C72.6872 138.824 69.9472 137.217 68.4964 134.623L46.4282 95.1642H41.6621V130.617C41.6621 135.15 37.9876 138.824 33.4549 138.824H8.3908ZM33.4549 86.9569H51.2418L75.6595 130.617H103.796L76.3063 82.5909C78.4739 81.599 80.4912 80.4443 82.3582 79.1268C85.9698 76.5784 89.0192 73.421 91.5064 69.6546C95.2795 63.8333 97.1661 56.8261 97.1661 48.6332C97.1661 40.2246 95.3334 33.1635 91.6682 27.45C88.0029 21.7365 82.9362 17.4244 76.468 14.5137C70.1077 11.603 62.7771 10.1477 54.4763 10.1477H8.3908V130.617H33.4549V86.9569ZM69.8382 39.9012C71.3474 42.3806 72.102 45.2913 72.102 48.6332C72.102 51.8672 71.3474 54.724 69.8382 57.2034C68.4367 59.6829 66.4424 61.6233 63.8551 63.0248C61.2679 64.4262 58.1955 65.1269 54.638 65.1269H33.4549V31.9777H54.638C58.1955 31.9777 61.2679 32.6784 63.8551 34.0798C66.4424 35.4813 68.4367 37.4217 69.8382 39.9012ZM41.6621 40.185V56.9196H54.638C57.1138 56.9196 58.7859 56.4366 59.9461 55.8082C61.2249 55.1155 62.0765 54.2561 62.6932 53.165C62.7368 53.088 62.7815 53.0117 62.8275 52.9361C63.467 51.8855 63.8947 50.5387 63.8947 48.6332C63.8947 46.5646 63.4417 45.1775 62.8275 44.1685C62.7815 44.0929 62.7368 44.0166 62.6932 43.9396C62.0765 42.8485 61.2249 41.9891 59.9461 41.2964C58.7859 40.668 57.1138 40.185 54.638 40.185H41.6621Z" fill="#AD9255"/>
<line x1="5.92564" y1="21.7277" x2="54.9598" y2="21.7277" stroke="#AD9255" stroke-width="2.73576"/>
<line x1="126.299" y1="97.645" x2="160.496" y2="97.645" stroke="#AD9255" stroke-width="4.10364"/>
<line x1="167.335" y1="24.4635" x2="201.532" y2="24.4635" stroke="#AD9255" stroke-width="5.47151"/>
<line x1="261.719" y1="28.5671" x2="261.719" y2="8.04896" stroke="#AD9255" stroke-width="5.47151"/>
<line x1="250.776" y1="136.63" x2="250.776" y2="116.111" stroke="#AD9255" stroke-width="5.47151"/>
<line x1="385.568" y1="37.2497" x2="378.728" y2="8.52421" stroke="#AD9255" stroke-width="4.10364"/>
<line x1="346.527" y1="120.899" x2="368.413" y2="120.899" stroke="#AD9255" stroke-width="4.10364"/>
<line x1="287.709" y1="106.536" x2="331.481" y2="106.536" stroke="#AD9255" stroke-width="5.47151"/>
<line x1="600.953" y1="98.3289" x2="620.103" y2="98.3289" stroke="#AD9255" stroke-width="2.73576"/>
<line x1="766.466" y1="120.215" x2="807.502" y2="120.215" stroke="#AD9255" stroke-width="5.47151"/>
<line x1="728.165" y1="21.7277" x2="759.627" y2="21.7277" stroke="#AD9255" stroke-width="5.47151"/>
<line x1="406.64" y1="85.3875" x2="418.951" y2="137.367" stroke="#AD9255" stroke-width="5.47151"/>
<line x1="475.034" y1="85.3875" x2="487.345" y2="137.367" stroke="#AD9255" stroke-width="5.47151"/>
<line x1="475.034" y1="85.3875" x2="487.345" y2="137.367" stroke="#AD9255" stroke-width="5.47151"/>
<line x1="527.087" y1="81.9144" x2="617.367" y2="81.9144" stroke="#AD9255" stroke-width="5.47151"/>
<line x1="516.144" y1="109.272" x2="622.839" y2="109.272" stroke="#AD9255" stroke-width="5.47151"/>
<line x1="660.851" y1="42.3904" x2="680.001" y2="80.691" stroke="#AD9255" stroke-width="5.47151"/>
<line x1="619.678" y1="6.58518" x2="645.668" y2="47.6215" stroke="#AD9255" stroke-width="5.47151"/>
<line x1="118.092" y1="109.272" x2="224.786" y2="109.272" stroke="#AD9255" stroke-width="5.47151"/>
<line x1="127.667" y1="83.2822" x2="223.418" y2="83.2822" stroke="#AD9255" stroke-width="5.47151"/>
<line x1="5.92564" y1="86.0181" x2="83.8947" y2="86.0181" stroke="#AD9255" stroke-width="5.47151"/>
<line x1="494.292" y1="37.8391" x2="501.132" y2="7.7458" stroke="#AD9255" stroke-width="2.73576"/>
</svg>
